<?xml version="1.0" encoding="UTF-8"?>
<!DOCTYPE svg PUBLIC "-//W3C//DTD SVG 1.1//EN" "http://www.w3.org/Graphics/SVG/1.1/DTD/svg11.dtd">
<svg xmlns="http://www.w3.org/2000/svg" version="1.1" width="256px" height="256px" style="shape-rendering:geometricPrecision; text-rendering:geometricPrecision; image-rendering:optimizeQuality; fill-rule:evenodd; clip-rule:evenodd" xmlns:xlink="http://www.w3.org/1999/xlink">
<g><path style="opacity:0.15" fill="#020100" d="M 190.5,0.5 C 202.403,-1.72242 209.57,2.94424 212,14.5C 212.802,24.1875 213.802,33.8541 215,43.5C 225.137,51.5402 227.137,61.2069 221,72.5C 220.333,73.5 220.333,74.5 221,75.5C 226.606,76.0466 232.106,77.2133 237.5,79C 243.024,86.5749 245.524,95.0749 245,104.5C 244.751,107.177 243.751,109.51 242,111.5C 239.147,113.161 236.647,115.161 234.5,117.5C 234.833,118.167 235.167,118.833 235.5,119.5C 241.257,120.441 245.424,123.441 248,128.5C 249.011,136.983 248.344,145.316 246,153.5C 245.535,154.931 244.701,156.097 243.5,157C 240.043,158.743 236.377,159.743 232.5,160C 231.09,160.368 230.09,161.201 229.5,162.5C 236.47,168.562 238.636,175.896 236,184.5C 233.834,190.694 230.334,195.86 225.5,200C 219.584,200.19 213.751,200.69 208,201.5C 207.907,205.311 208.074,209.144 208.5,213C 208.557,215.96 208.057,218.793 207,221.5C 200.169,230.169 191.335,233.669 180.5,232C 177.929,231.099 175.596,229.766 173.5,228C 172.207,227.51 170.873,227.343 169.5,227.5C 169.909,233.436 168.576,238.936 165.5,244C 155.818,248.489 145.818,249.489 135.5,247C 132.932,243.333 130.265,239.833 127.5,236.5C 124.952,238.569 123.119,241.236 122,244.5C 120.786,246.049 119.286,247.215 117.5,248C 109.366,248.924 101.366,248.258 93.5,246C 90.9427,245.315 89.1094,243.815 88,241.5C 86.0255,237.037 85.1922,232.371 85.5,227.5C 84.1266,227.343 82.7932,227.51 81.5,228C 70.8093,234.719 60.8093,233.719 51.5,225C 45.9455,225.013 40.6122,224.013 35.5,222C 33.9512,220.786 32.7845,219.286 32,217.5C 29.5881,211.362 27.9215,205.028 27,198.5C 19.9626,190.768 17.296,181.768 19,171.5C 20.5857,168.081 22.7524,165.081 25.5,162.5C 24.91,161.201 23.91,160.368 22.5,160C 12.9383,160.434 7.77168,155.934 7,146.5C 6.1227,139.751 6.45604,133.084 8,126.5C 11.0427,123.053 14.876,120.72 19.5,119.5C 19.8333,118.833 20.1667,118.167 20.5,117.5C 17.8381,115.068 15.0047,112.735 12,110.5C 8.77672,99.0831 10.6101,88.5831 17.5,79C 22.618,76.9204 27.9513,76.0871 33.5,76.5C 32.1996,71.4204 31.1996,66.2538 30.5,61C 31.5474,51.2705 36.5474,44.2705 45.5,40C 51.9315,39.4958 58.2648,39.8291 64.5,41C 65.7376,38.3816 65.7376,35.715 64.5,33C 65.0423,29.2839 66.2089,25.7839 68,22.5C 75.3497,17.16 83.5163,14.66 92.5,15C 95.1768,15.2494 97.5101,16.2494 99.5,18C 100.927,21.8348 103.427,23.3348 107,22.5C 108,19.1667 109,15.8333 110,12.5C 111.214,10.9512 112.714,9.78451 114.5,9C 123.958,6.74825 133.291,7.08158 142.5,10C 145.453,13.6035 147.287,17.7701 148,22.5C 151.573,23.3348 154.073,21.8348 155.5,18C 163.487,13.4387 171.487,13.6054 179.5,18.5C 180.478,14.1044 181.645,9.7711 183,5.5C 185.17,3.17694 187.67,1.51027 190.5,0.5 Z M 70.5,91.5 C 74.505,95.2165 76.005,99.8832 75,105.5C 71.0325,115.438 66.0325,124.771 60,133.5C 59.226,126.776 59.5594,120.11 61,113.5C 63.3706,105.765 66.5372,98.4321 70.5,91.5 Z M 190.5,116.5 C 192.451,116.227 193.951,116.893 195,118.5C 195.814,120.902 195.647,123.235 194.5,125.5C 187.052,124.469 179.718,124.469 172.5,125.5C 171.24,123.647 171.24,121.814 172.5,120C 178.646,118.938 184.646,117.772 190.5,116.5 Z M 110.5,195.5 C 105.217,193.525 100.217,191.025 95.5,188C 100.544,188.285 105.544,189.118 110.5,190.5C 110.5,192.167 110.5,193.833 110.5,195.5 Z M 124.5,193.5 C 126.55,193.961 128.55,194.628 130.5,195.5C 132.215,195.405 133.881,195.072 135.5,194.5C 136.167,194.5 136.833,194.5 137.5,194.5C 137.5,194.833 137.5,195.167 137.5,195.5C 136.167,195.833 136.167,196.167 137.5,196.5C 132.715,197.632 127.715,197.632 122.5,196.5C 123.167,196.5 123.5,196.167 123.5,195.5C 123.833,194.833 124.167,194.167 124.5,193.5 Z"/></g>
<g><path style="opacity:1" fill="#ead5aa" d="M 201.5,49.5 C 202.383,54.1031 202.717,58.7697 202.5,63.5C 202.833,66.5 201.5,67.8333 198.5,67.5C 198.184,61.6511 197.518,55.9845 196.5,50.5C 195.429,39.3445 194.429,28.1778 193.5,17C 193.258,14.6518 194.092,12.8185 196,11.5C 196.915,12.3279 197.581,13.3279 198,14.5C 199.563,26.132 200.73,37.7986 201.5,49.5 Z"/></g>
<g><path style="opacity:1" fill="#a57c59" d="M 87.5,24.5 C 90.0972,24.7208 90.0972,25.2208 87.5,26C 88.4158,26.2784 89.0825,26.7784 89.5,27.5C 88.5313,28.3094 87.6979,29.3094 87,30.5C 86.586,30.0426 86.086,29.7093 85.5,29.5C 82.8122,30.5134 80.1456,31.5134 77.5,32.5C 77.631,31.7611 77.4643,31.0944 77,30.5C 76.3292,31.2524 75.4959,31.5858 74.5,31.5C 78.3518,28.4053 82.6852,26.0719 87.5,24.5 Z"/></g>
<g><path style="opacity:1" fill="#7c5232" d="M 87.5,24.5 C 88.2506,23.4265 89.2506,23.2599 90.5,24C 93.1667,27.6667 95.8333,31.3333 98.5,35C 100.197,35.3845 101.863,35.2178 103.5,34.5C 104.609,35.29 105.942,35.79 107.5,36C 106.584,36.2784 105.918,36.7784 105.5,37.5C 102.72,37.9452 100.053,37.9452 97.5,37.5C 94.8141,34.097 92.1474,30.7637 89.5,27.5C 89.0825,26.7784 88.4158,26.2784 87.5,26C 90.0972,25.2208 90.0972,24.7208 87.5,24.5 Z"/></g>
<g><path style="opacity:0.992" fill="#ad805c" d="M 131.5,19.5 C 131.217,20.2891 130.717,20.9558 130,21.5C 127.333,20.1667 124.667,20.1667 122,21.5C 120.874,25.4648 119.874,29.4648 119,33.5C 118.167,34.3333 117.333,35.1667 116.5,36C 112.83,36.5482 109.163,37.0482 105.5,37.5C 105.918,36.7784 106.584,36.2784 107.5,36C 105.942,35.79 104.609,35.29 103.5,34.5C 107.384,33.2073 111.384,32.5407 115.5,32.5C 116.397,33.5981 117.23,33.5981 118,32.5C 118.996,28.1843 119.83,23.8509 120.5,19.5C 124.167,19.5 127.833,19.5 131.5,19.5 Z"/></g>
<g><path style="opacity:1" fill="#885d3b" d="M 156.5,35.5 C 157.133,35.8795 157.8,36.2129 158.5,36.5C 157.562,37.5529 156.395,38.2196 155,38.5C 149.686,36.4631 144.186,35.2965 138.5,35C 136.236,31.2183 135.069,27.0516 135,22.5C 134.578,20.5743 133.411,19.5743 131.5,19.5C 127.833,19.5 124.167,19.5 120.5,19.5C 119.83,23.8509 118.996,28.1843 118,32.5C 117.23,33.5981 116.397,33.5981 115.5,32.5C 116.178,27.4279 117.178,22.4279 118.5,17.5C 124.509,17.3338 130.509,17.5005 136.5,18C 137.873,22.7316 138.873,27.5649 139.5,32.5C 145.195,33.3403 150.861,34.3403 156.5,35.5 Z"/></g>
<g><path style="opacity:1" fill="#a86d3f" d="M 131.5,19.5 C 133.411,19.5743 134.578,20.5743 135,22.5C 135.069,27.0516 136.236,31.2183 138.5,35C 144.186,35.2965 149.686,36.4631 155,38.5C 156.395,38.2196 157.562,37.5529 158.5,36.5C 157.8,36.2129 157.133,35.8795 156.5,35.5C 159.016,31.1336 162.016,27.1336 165.5,23.5C 166.107,23.6236 166.44,23.9569 166.5,24.5C 164.554,25.2544 163.721,26.5878 164,28.5C 169.428,27.4565 173.928,29.1231 177.5,33.5C 176.229,38.1146 175.729,42.7812 176,47.5C 181.559,50.8572 186.392,55.0238 190.5,60C 190.265,60.8732 189.931,61.7065 189.5,62.5C 192.034,65.4222 192.034,68.4222 189.5,71.5C 191.147,73.488 190.814,74.8213 188.5,75.5C 183.463,70.4607 178.129,65.794 172.5,61.5C 172.286,59.8561 172.62,58.3561 173.5,57C 173.068,55.3498 171.735,53.8498 169.5,52.5C 168.231,50.3052 168.231,48.1385 169.5,46C 168.552,45.5172 167.552,45.3505 166.5,45.5C 166.5,46.5 166.5,47.5 166.5,48.5C 164.089,48.8633 162.589,47.8633 162,45.5C 161.667,45.8333 161.333,46.1667 161,46.5C 157.285,44.8297 153.618,43.1631 150,41.5C 147.786,42.0496 145.452,42.0496 143,41.5C 140.707,44.403 139.041,44.0697 138,40.5C 136.812,41.5634 136.312,42.8967 136.5,44.5C 133.966,44.2591 132.3,45.2591 131.5,47.5C 126.13,47.3921 120.797,47.7255 115.5,48.5C 112.214,47.7929 108.881,47.4595 105.5,47.5C 104.849,46.9094 104.182,46.2427 103.5,45.5C 100.41,47.9507 97.2431,47.9507 94,45.5C 93.6667,46.1667 93.3333,46.8333 93,47.5C 91.6667,47.5 90.3333,47.5 89,47.5C 87.5189,44.9564 85.3522,43.2897 82.5,42.5C 81.0172,44.9458 79.8505,44.6124 79,41.5C 78.4978,38.4869 77.9978,35.4869 77.5,32.5C 80.1456,31.5134 82.8122,30.5134 85.5,29.5C 86.086,29.7093 86.586,30.0426 87,30.5C 87.6979,29.3094 88.5313,28.3094 89.5,27.5C 92.1474,30.7637 94.8141,34.097 97.5,37.5C 100.053,37.9452 102.72,37.9452 105.5,37.5C 109.163,37.0482 112.83,36.5482 116.5,36C 117.333,35.1667 118.167,34.3333 119,33.5C 119.874,29.4648 120.874,25.4648 122,21.5C 124.667,20.1667 127.333,20.1667 130,21.5C 130.717,20.9558 131.217,20.2891 131.5,19.5 Z"/></g>
<g><path style="opacity:1" fill="#8f5c36" d="M 77.5,32.5 C 77.9978,35.4869 78.4978,38.4869 79,41.5C 79.8505,44.6124 81.0172,44.9458 82.5,42.5C 85.3522,43.2897 87.5189,44.9564 89,47.5C 90.3333,47.5 91.6667,47.5 93,47.5C 93.3333,46.8333 93.6667,46.1667 94,45.5C 97.2431,47.9507 100.41,47.9507 103.5,45.5C 104.182,46.2427 104.849,46.9094 105.5,47.5C 103.603,48.8048 101.269,49.4714 98.5,49.5C 93.2277,49.0488 87.8944,48.7155 82.5,48.5C 80.1705,51.1509 77.8372,53.8175 75.5,56.5C 74.3777,57.6302 73.0443,58.2969 71.5,58.5C 72.0435,55.3004 73.7102,52.9671 76.5,51.5C 78.3271,50.0681 79.9937,48.4014 81.5,46.5C 80.7261,45.2888 79.8928,45.2888 79,46.5C 78.6667,45.5 78.3333,44.5 78,43.5C 77.7679,44.7375 77.2679,45.7375 76.5,46.5C 76.3512,41.4246 75.6845,36.4246 74.5,31.5C 75.4959,31.5858 76.3292,31.2524 77,30.5C 77.4643,31.0944 77.631,31.7611 77.5,32.5 Z"/></g>
<g><path style="opacity:1" fill="#644024" d="M 164.5,54.5 C 162.143,54.6633 159.81,54.4966 157.5,54C 152.228,50.0153 146.395,48.5153 140,49.5C 139.502,52.4816 139.335,55.4816 139.5,58.5C 139.167,58.5 138.833,58.5 138.5,58.5C 138.5,56.1667 138.5,53.8333 138.5,51.5C 130.18,50.4599 121.847,50.4599 113.5,51.5C 113.5,50.8333 113.167,50.5 112.5,50.5C 113.5,49.8333 114.5,49.1667 115.5,48.5C 120.797,47.7255 126.13,47.3921 131.5,47.5C 137.948,47.2861 143.782,46.6194 149,45.5C 149.324,47.5689 150.158,47.9023 151.5,46.5C 157.419,46.7797 161.752,49.4464 164.5,54.5 Z"/></g>
<g><path style="opacity:0.45" fill="#050302" d="M 138.5,58.5 C 134.625,63.4174 131.958,68.9174 130.5,75C 131.985,77.6517 133.985,79.8184 136.5,81.5C 136.611,82.1174 136.944,82.6174 137.5,83C 132.971,83.6679 128.804,85.1679 125,87.5C 123.612,81.5881 121.779,75.9214 119.5,70.5C 118.784,67.4024 117.284,64.7357 115,62.5C 114.68,58.7858 114.18,55.1191 113.5,51.5C 121.847,50.4599 130.18,50.4599 138.5,51.5C 138.5,53.8333 138.5,56.1667 138.5,58.5 Z"/></g>
<g><path style="opacity:1" fill="#704728" d="M 215.5,62.5 C 214.778,62.0825 214.278,61.4158 214,60.5C 210.204,64.4494 207.037,68.7827 204.5,73.5C 203.833,70.1667 203.167,66.8333 202.5,63.5C 202.717,58.7697 202.383,54.1031 201.5,49.5C 202.458,49.0472 203.292,48.3805 204,47.5C 208.534,51.6994 212.701,56.1994 216.5,61C 215.944,61.3826 215.611,61.8826 215.5,62.5 Z"/></g>
<g><path style="opacity:1" fill="#2d1d12" d="M 111.5,50.5 C 110.126,52.7137 108.959,55.047 108,57.5C 107.125,54.7854 105.292,53.4521 102.5,53.5C 102.768,55.099 102.434,56.4324 101.5,57.5C 100.041,57.5674 98.7079,57.2341 97.5,56.5C 96.3915,55.71 95.0581,55.21 93.5,55C 95.7885,54.1779 98.1218,53.5112 100.5,53C 101.942,52.6232 102.942,51.7899 103.5,50.5C 106.328,49.5033 108.995,49.5033 111.5,50.5 Z"/></g>
<g><path style="opacity:1" fill="#875631" d="M 172.5,61.5 C 170.771,60.8825 169.271,59.8825 168,58.5C 167.617,59.056 167.117,59.3893 166.5,59.5C 166.631,58.7611 166.464,58.0944 166,57.5C 165.346,58.6956 164.846,58.6956 164.5,57.5C 165.653,56.3132 165.653,55.3132 164.5,54.5C 161.752,49.4464 157.419,46.7797 151.5,46.5C 150.158,47.9023 149.324,47.5689 149,45.5C 143.782,46.6194 137.948,47.2861 131.5,47.5C 132.3,45.2591 133.966,44.2591 136.5,44.5C 136.312,42.8967 136.812,41.5634 138,40.5C 139.041,44.0697 140.707,44.403 143,41.5C 145.452,42.0496 147.786,42.0496 150,41.5C 153.618,43.1631 157.285,44.8297 161,46.5C 161.333,46.1667 161.667,45.8333 162,45.5C 162.589,47.8633 164.089,48.8633 166.5,48.5C 166.5,47.5 166.5,46.5 166.5,45.5C 167.552,45.3505 168.552,45.5172 169.5,46C 168.231,48.1385 168.231,50.3052 169.5,52.5C 171.735,53.8498 173.068,55.3498 173.5,57C 172.62,58.3561 172.286,59.8561 172.5,61.5 Z"/></g>
<g><path style="opacity:1" fill="#593921" d="M 103.5,50.5 C 102.942,51.7899 101.942,52.6232 100.5,53C 98.1218,53.5112 95.7885,54.1779 93.5,55C 95.0581,55.21 96.3915,55.71 97.5,56.5C 90.2428,54.3024 83.5762,55.3024 77.5,59.5C 76.475,59.1034 76.3083,58.4368 77,57.5C 78.3198,55.1829 79.9864,53.1829 82,51.5C 82.8926,52.0814 83.8926,52.4148 85,52.5C 91.1351,51.5035 97.3017,50.8368 103.5,50.5 Z"/></g>
<g><path style="opacity:1" fill="#f4dcac" d="M 164.5,54.5 C 165.653,55.3132 165.653,56.3132 164.5,57.5C 164.846,58.6956 165.346,58.6956 166,57.5C 166.464,58.0944 166.631,58.7611 166.5,59.5C 166.167,60.1667 165.833,60.8333 165.5,61.5C 162.257,62.58 158.924,62.7466 155.5,62C 151.088,58.7103 146.588,55.5437 142,52.5C 141.536,53.0944 141.369,53.7611 141.5,54.5C 141.639,57.7574 142.306,60.9241 143.5,64C 143.359,65.9552 142.526,67.4552 141,68.5C 140.667,72.1667 140.333,75.8333 140,79.5C 138.982,80.7059 138.482,80.3726 138.5,78.5C 139.424,71.8722 139.757,65.2055 139.5,58.5C 139.335,55.4816 139.502,52.4816 140,49.5C 146.395,48.5153 152.228,50.0153 157.5,54C 159.81,54.4966 162.143,54.6633 164.5,54.5 Z"/></g>
<g><path style="opacity:1" fill="#774b2a" d="M 105.5,47.5 C 108.881,47.4595 112.214,47.7929 115.5,48.5C 114.5,49.1667 113.5,49.8333 112.5,50.5C 112.167,50.5 111.833,50.5 111.5,50.5C 108.995,49.5033 106.328,49.5033 103.5,50.5C 97.3017,50.8368 91.1351,51.5035 85,52.5C 83.8926,52.4148 82.8926,52.0814 82,51.5C 79.9864,53.1829 78.3198,55.1829 77,57.5C 76.3083,58.4368 76.475,59.1034 77.5,59.5C 77.3253,61.6208 77.6586,63.6208 78.5,65.5C 76.2459,66.4151 74.2459,67.7484 72.5,69.5C 72.2173,65.5814 71.884,61.9147 71.5,58.5C 73.0443,58.2969 74.3777,57.6302 75.5,56.5C 77.8372,53.8175 80.1705,51.1509 82.5,48.5C 87.8944,48.7155 93.2277,49.0488 98.5,49.5C 101.269,49.4714 103.603,48.8048 105.5,47.5 Z"/></g>
<g><path style="opacity:1" fill="#9d704c" d="M 76.5,51.5 C 72.6009,53.3856 68.9343,55.7189 65.5,58.5C 59.9255,56.7119 54.9255,53.8785 50.5,50C 51.056,49.6174 51.3893,49.1174 51.5,48.5C 55.4828,50.8058 59.4828,53.1391 63.5,55.5C 67.5939,52.0592 71.9272,49.0592 76.5,46.5C 77.2679,45.7375 77.7679,44.7375 78,43.5C 78.3333,44.5 78.6667,45.5 79,46.5C 79.8928,45.2888 80.7261,45.2888 81.5,46.5C 79.9937,48.4014 78.3271,50.0681 76.5,51.5 Z"/></g>
<g><path style="opacity:1" fill="#674327" d="M 196.5,50.5 C 197.518,55.9845 198.184,61.6511 198.5,67.5C 199.19,73.8097 199.524,80.143 199.5,86.5C 198.167,86.5 196.833,86.5 195.5,86.5C 195.5,87.5 195.5,88.5 195.5,89.5C 188.425,77.0931 178.425,67.7598 165.5,61.5C 165.833,60.8333 166.167,60.1667 166.5,59.5C 167.117,59.3893 167.617,59.056 168,58.5C 169.271,59.8825 170.771,60.8825 172.5,61.5C 178.129,65.794 183.463,70.4607 188.5,75.5C 189.479,77.1454 190.812,78.4787 192.5,79.5C 194.906,72.6031 195.572,65.6031 194.5,58.5C 193.07,58.5792 191.736,58.2458 190.5,57.5C 189.227,56.7435 189.227,56.0768 190.5,55.5C 193.362,54.7529 195.362,53.0862 196.5,50.5 Z"/></g>
<g><path style="opacity:0.354" fill="#080503" d="M 165.5,61.5 C 178.425,67.7598 188.425,77.0931 195.5,89.5C 189.89,90.9959 184.056,91.9959 178,92.5C 173.04,90.7916 168.207,88.7916 163.5,86.5C 159.233,85.2316 156.233,82.5649 154.5,78.5C 153.57,74.2038 152.737,69.8704 152,65.5C 148.296,61.9643 144.796,58.2976 141.5,54.5C 141.369,53.7611 141.536,53.0944 142,52.5C 146.588,55.5437 151.088,58.7103 155.5,62C 158.924,62.7466 162.257,62.58 165.5,61.5 Z"/></g>
<g><path style="opacity:0.239" fill="#040201" d="M 79.5,67.5 C 83.4123,68.9933 83.079,69.6599 78.5,69.5C 78.3433,70.8734 78.51,72.2068 79,73.5C 80.3647,76.6624 82.1981,79.3291 84.5,81.5C 84.6729,86.866 86.6729,91.366 90.5,95C 91.7932,95.49 93.1266,95.6567 94.5,95.5C 92.9674,102.573 90.3008,109.24 86.5,115.5C 83.2287,124.04 78.8954,132.04 73.5,139.5C 69.4394,144.7 67.7727,150.7 68.5,157.5C 64.1667,158.833 59.8333,160.167 55.5,161.5C 42.3283,125.36 49.6616,94.1933 77.5,68C 78.0944,67.5357 78.7611,67.369 79.5,67.5 Z M 70.5,91.5 C 66.5372,98.4321 63.3706,105.765 61,113.5C 59.5594,120.11 59.226,126.776 60,133.5C 66.0325,124.771 71.0325,115.438 75,105.5C 76.005,99.8832 74.505,95.2165 70.5,91.5 Z"/></g>
<g><path style="opacity:1" fill="#f6dcaa" d="M 97.5,56.5 C 98.7079,57.2341 100.041,57.5674 101.5,57.5C 101.069,64.3504 100.403,71.1837 99.5,78C 99.6249,80.5506 99.9582,83.0506 100.5,85.5C 99.6909,87.2922 99.1909,89.2922 99,91.5C 98.8214,88.4465 98.3214,85.4465 97.5,82.5C 96.6922,84.4233 96.1922,86.4233 96,88.5C 95.6934,81.8451 95.1934,75.5117 94.5,69.5C 93.8333,73.5 93.1667,77.5 92.5,81.5C 91.7022,79.9223 91.2022,78.2556 91,76.5C 90.1553,78.6115 89.322,80.6115 88.5,82.5C 87.8902,81.609 87.5569,80.609 87.5,79.5C 87.4861,74.3087 87.3194,68.9754 87,63.5C 86.1625,69.6466 85.3291,75.6466 84.5,81.5C 82.1981,79.3291 80.3647,76.6624 79,73.5C 78.51,72.2068 78.3433,70.8734 78.5,69.5C 83.079,69.6599 83.4123,68.9933 79.5,67.5C 79.6716,66.5084 79.3382,65.8417 78.5,65.5C 77.6586,63.6208 77.3253,61.6208 77.5,59.5C 83.5762,55.3024 90.2428,54.3024 97.5,56.5 Z"/></g>
<g><path style="opacity:1" fill="#815330" d="M 166.5,24.5 C 171.288,25.81 175.788,27.81 180,30.5C 180.223,35.5033 179.39,40.3366 177.5,45C 182.311,47.9849 186.644,51.4849 190.5,55.5C 189.227,56.0768 189.227,56.7435 190.5,57.5C 191.736,58.2458 193.07,58.5792 194.5,58.5C 195.572,65.6031 194.906,72.6031 192.5,79.5C 190.812,78.4787 189.479,77.1454 188.5,75.5C 190.814,74.8213 191.147,73.488 189.5,71.5C 192.034,68.4222 192.034,65.4222 189.5,62.5C 189.931,61.7065 190.265,60.8732 190.5,60C 186.392,55.0238 181.559,50.8572 176,47.5C 175.729,42.7812 176.229,38.1146 177.5,33.5C 173.928,29.1231 169.428,27.4565 164,28.5C 163.721,26.5878 164.554,25.2544 166.5,24.5 Z"/></g>
<g><path style="opacity:1" fill="#f5d59d" d="M 111.5,50.5 C 111.833,50.5 112.167,50.5 112.5,50.5C 113.167,50.5 113.5,50.8333 113.5,51.5C 114.18,55.1191 114.68,58.7858 115,62.5C 117.284,64.7357 118.784,67.4024 119.5,70.5C 119.922,74.7222 119.255,78.7222 117.5,82.5C 116.914,82.7093 116.414,83.0426 116,83.5C 116.218,79.3617 114.552,78.0284 111,79.5C 111.005,90.1668 111.672,90.1668 113,79.5C 113.346,81.2182 113.846,82.8849 114.5,84.5C 113.23,88.4842 113.23,92.4842 114.5,96.5C 115.167,95.1667 115.833,93.8333 116.5,92.5C 116.833,92.6667 117.167,92.8333 117.5,93C 117.041,97.0098 116.041,100.843 114.5,104.5C 113.833,104.167 113.167,103.833 112.5,103.5C 111.675,99.8776 111.175,96.211 111,92.5C 110.085,93.3279 109.419,94.3279 109,95.5C 108.667,92.5 108.333,89.5 108,86.5C 107.667,89.1667 107.333,91.8333 107,94.5C 107.505,87.9894 107.338,81.6561 106.5,75.5C 105.756,76.9905 105.09,78.4905 104.5,80C 105.019,82.0258 105.353,84.0258 105.5,86C 105,86.5 104.5,87 104,87.5C 103.824,90.8818 103.324,94.2152 102.5,97.5C 101.914,97.7093 101.414,98.0426 101,98.5C 100.333,95.1667 100.333,91.8333 101,88.5C 101.333,91.1667 101.667,93.8333 102,96.5C 102.667,91.5 102.667,86.5 102,81.5C 101.79,83.0581 101.29,84.3915 100.5,85.5C 99.9582,83.0506 99.6249,80.5506 99.5,78C 100.403,71.1837 101.069,64.3504 101.5,57.5C 102.434,56.4324 102.768,55.099 102.5,53.5C 105.292,53.4521 107.125,54.7854 108,57.5C 108.959,55.047 110.126,52.7137 111.5,50.5 Z"/></g>
<g><path style="opacity:1" fill="#4d301b" d="M 215.5,62.5 C 212.858,66.1484 210.191,69.8151 207.5,73.5C 210.355,78.0689 213.021,82.7356 215.5,87.5C 214.778,87.9175 214.278,88.5842 214,89.5C 213.148,88.4293 212.315,87.4293 211.5,86.5C 209.735,85.5386 207.735,85.2053 205.5,85.5C 204.979,81.5191 204.646,77.5191 204.5,73.5C 207.037,68.7827 210.204,64.4494 214,60.5C 214.278,61.4158 214.778,62.0825 215.5,62.5 Z"/></g>
<g><path style="opacity:1" fill="#9b6f4c" d="M 22.5,101.5 C 21.7784,101.082 21.2784,100.416 21,99.5C 20.6667,100.5 20.3333,101.5 20,102.5C 19.5357,101.906 19.369,101.239 19.5,100.5C 20.6735,96.1453 22.0068,91.8119 23.5,87.5C 28.8456,87.0236 34.1789,86.6902 39.5,86.5C 41.7497,82.3318 44.2497,78.3318 47,74.5C 47.3152,73.0922 46.9819,71.7589 46,70.5C 44.1581,68.1364 42.3247,65.8031 40.5,63.5C 41.9573,61.2476 43.4573,61.5809 45,64.5C 48.0375,67.9049 49.8708,71.5716 50.5,75.5C 47.2817,80.5415 44.2817,85.7082 41.5,91C 36.8936,91.3415 32.3936,90.8415 28,89.5C 25.4977,93.1647 23.6644,97.1647 22.5,101.5 Z"/></g>
<g><path style="opacity:1" fill="#f2cf95" d="M 141.5,54.5 C 144.796,58.2976 148.296,61.9643 152,65.5C 152.737,69.8704 153.57,74.2038 154.5,78.5C 154.406,81.0685 153.072,82.5685 150.5,83C 151.308,83.3076 151.975,83.8076 152.5,84.5C 152.216,87.94 151.049,90.94 149,93.5C 148.667,91.8333 148.333,90.1667 148,88.5C 147.667,89.1667 147.333,89.8333 147,90.5C 146.821,87.4465 146.321,84.4465 145.5,81.5C 145.167,81.8333 144.833,82.1667 144.5,82.5C 145.663,87.822 146.83,93.1554 148,98.5C 148.934,94.7179 149.768,94.8846 150.5,99C 149.329,103.613 148.996,108.113 149.5,112.5C 147.732,108.956 146.898,104.956 147,100.5C 146.667,101.5 146.333,102.5 146,103.5C 145.505,101.527 145.338,99.5273 145.5,97.5C 144.737,96.7321 143.737,96.2321 142.5,96C 143.448,95.5172 144.448,95.3505 145.5,95.5C 145.357,92.9026 144.523,90.5692 143,88.5C 142.504,90.0349 142.67,91.5349 143.5,93C 143.389,94.7215 142.889,94.8882 142,93.5C 141.667,94.8333 141.333,96.1667 141,97.5C 140.667,94.5 140.333,91.5 140,88.5C 139.667,89.8333 139.333,91.1667 139,92.5C 139.094,88.3673 138.26,84.7006 136.5,81.5C 133.985,79.8184 131.985,77.6517 130.5,75C 131.958,68.9174 134.625,63.4174 138.5,58.5C 138.833,58.5 139.167,58.5 139.5,58.5C 139.757,65.2055 139.424,71.8722 138.5,78.5C 138.482,80.3726 138.982,80.7059 140,79.5C 140.333,75.8333 140.667,72.1667 141,68.5C 142.526,67.4552 143.359,65.9552 143.5,64C 142.306,60.9241 141.639,57.7574 141.5,54.5 Z"/></g>
<g><path style="opacity:1" fill="#ebc286" d="M 154.5,78.5 C 156.233,82.5649 159.233,85.2316 163.5,86.5C 161.078,87.6923 160.078,89.6923 160.5,92.5C 160.716,94.3839 161.383,96.0506 162.5,97.5C 160.144,98.6539 159.977,99.9873 162,101.5C 163.014,97.9015 163.847,94.2348 164.5,90.5C 164.833,90.6667 165.167,90.8333 165.5,91C 164.223,93.4659 164.223,95.9659 165.5,98.5C 165.833,97.8333 166.167,97.1667 166.5,96.5C 167.48,99.0865 167.813,101.753 167.5,104.5C 171.167,104.5 174.833,104.5 178.5,104.5C 173.319,105.167 167.985,105.833 162.5,106.5C 161.392,109.059 160.059,111.392 158.5,113.5C 158.657,112.127 158.49,110.793 158,109.5C 156.196,112.325 154.696,115.325 153.5,118.5C 152.575,117.359 151.741,117.359 151,118.5C 150.517,117.552 150.351,116.552 150.5,115.5C 151.5,115.5 152.5,115.5 153.5,115.5C 153.992,111.71 153.159,111.044 151,113.5C 150.617,112.944 150.117,112.611 149.5,112.5C 148.996,108.113 149.329,103.613 150.5,99C 149.768,94.8846 148.934,94.7179 148,98.5C 146.83,93.1554 145.663,87.822 144.5,82.5C 144.833,82.1667 145.167,81.8333 145.5,81.5C 146.321,84.4465 146.821,87.4465 147,90.5C 147.333,89.8333 147.667,89.1667 148,88.5C 148.333,90.1667 148.667,91.8333 149,93.5C 151.049,90.94 152.216,87.94 152.5,84.5C 151.975,83.8076 151.308,83.3076 150.5,83C 153.072,82.5685 154.406,81.0685 154.5,78.5 Z"/></g>
<g><path style="opacity:1" fill="#eac085" d="M 202.5,63.5 C 203.167,66.8333 203.833,70.1667 204.5,73.5C 204.646,77.5191 204.979,81.5191 205.5,85.5C 207.735,85.2053 209.735,85.5386 211.5,86.5C 210.817,88.1765 209.483,88.8432 207.5,88.5C 207.956,92.6017 207.289,96.435 205.5,100C 206.148,101.44 206.481,102.94 206.5,104.5C 205.167,104.5 203.833,104.5 202.5,104.5C 202.5,102.5 202.5,100.5 202.5,98.5C 201.209,98.2627 200.209,98.596 199.5,99.5C 198.167,99.8333 196.833,100.167 195.5,100.5C 196.048,98.4677 197.381,97.4677 199.5,97.5C 200.484,92.342 201.317,92.342 202,97.5C 204.148,95.4277 203.982,93.5944 201.5,92C 203.719,89.2508 204.553,86.0841 204,82.5C 202.54,84.972 201.54,87.6387 201,90.5C 200.79,88.9419 200.29,87.6085 199.5,86.5C 199.524,80.143 199.19,73.8097 198.5,67.5C 201.5,67.8333 202.833,66.5 202.5,63.5 Z"/></g>
<g><path style="opacity:1" fill="#f1ce95" d="M 195.5,100.5 C 190.093,102.849 184.426,104.182 178.5,104.5C 174.833,104.5 171.167,104.5 167.5,104.5C 167.813,101.753 167.48,99.0865 166.5,96.5C 166.167,97.1667 165.833,97.8333 165.5,98.5C 164.223,95.9659 164.223,93.4659 165.5,91C 165.167,90.8333 164.833,90.6667 164.5,90.5C 163.847,94.2348 163.014,97.9015 162,101.5C 159.977,99.9873 160.144,98.6539 162.5,97.5C 161.383,96.0506 160.716,94.3839 160.5,92.5C 160.078,89.6923 161.078,87.6923 163.5,86.5C 168.207,88.7916 173.04,90.7916 178,92.5C 184.056,91.9959 189.89,90.9959 195.5,89.5C 195.5,88.5 195.5,87.5 195.5,86.5C 196.833,86.5 198.167,86.5 199.5,86.5C 200.29,87.6085 200.79,88.9419 201,90.5C 201.54,87.6387 202.54,84.972 204,82.5C 204.553,86.0841 203.719,89.2508 201.5,92C 203.982,93.5944 204.148,95.4277 202,97.5C 201.317,92.342 200.484,92.342 199.5,97.5C 197.381,97.4677 196.048,98.4677 195.5,100.5 Z"/></g>
<g><path style="opacity:1" fill="#a86b3d" d="M 51.5,48.5 C 51.3893,49.1174 51.056,49.6174 50.5,50C 54.9255,53.8785 59.9255,56.7119 65.5,58.5C 68.9343,55.7189 72.6009,53.3856 76.5,51.5C 73.7102,52.9671 72.0435,55.3004 71.5,58.5C 71.884,61.9147 72.2173,65.5814 72.5,69.5C 51.4467,89.6573 43.1133,114.324 47.5,143.5C 47.67,144.822 47.3366,145.989 46.5,147C 42.9715,147.445 39.9715,148.945 37.5,151.5C 36.3044,151.154 36.3044,150.654 37.5,150C 36.9056,149.536 36.2389,149.369 35.5,149.5C 32.3733,148.419 29.0399,147.753 25.5,147.5C 23.7354,146.539 21.7354,146.205 19.5,146.5C 18.7264,142.125 18.7264,137.792 19.5,133.5C 23.8031,132.122 27.9698,130.456 32,128.5C 32.983,122.519 33.8164,116.519 34.5,110.5C 33.9904,108.912 32.9904,107.745 31.5,107C 28.1019,105.643 25.1019,103.81 22.5,101.5C 23.6644,97.1647 25.4977,93.1647 28,89.5C 32.3936,90.8415 36.8936,91.3415 41.5,91C 44.2817,85.7082 47.2817,80.5415 50.5,75.5C 49.8708,71.5716 48.0375,67.9049 45,64.5C 43.4573,61.5809 41.9573,61.2476 40.5,63.5C 40.0472,62.5416 39.3805,61.7083 38.5,61C 42.0632,55.9349 46.3965,51.7682 51.5,48.5 Z"/></g>
<g><path style="opacity:1" fill="#e9b878" d="M 145.5,97.5 C 145.338,99.5273 145.505,101.527 146,103.5C 146.333,102.5 146.667,101.5 147,100.5C 146.898,104.956 147.732,108.956 149.5,112.5C 150.117,112.611 150.617,112.944 151,113.5C 153.159,111.044 153.992,111.71 153.5,115.5C 152.5,115.5 151.5,115.5 150.5,115.5C 150.351,116.552 150.517,117.552 151,118.5C 151.741,117.359 152.575,117.359 153.5,118.5C 154.696,115.325 156.196,112.325 158,109.5C 158.49,110.793 158.657,112.127 158.5,113.5C 157.784,116.598 156.784,119.598 155.5,122.5C 154.732,123.263 154.232,124.263 154,125.5C 153.808,123.423 153.308,121.423 152.5,119.5C 151.289,120.274 151.289,121.107 152.5,122C 150.892,122.658 149.725,122.158 149,120.5C 148.667,121.5 148.333,122.5 148,123.5C 147.215,121.714 146.049,120.214 144.5,119C 145.591,116.936 145.758,114.769 145,112.5C 144.705,114.931 143.538,116.764 141.5,118C 143.405,118.826 143.739,119.993 142.5,121.5C 140.188,120.226 138.855,118.226 138.5,115.5C 139.64,113.922 140.14,112.256 140,110.5C 138.693,111.772 137.193,112.772 135.5,113.5C 136.025,114.192 136.692,114.692 137.5,115C 136.484,115.519 135.818,116.353 135.5,117.5C 136.804,118.023 137.471,119.357 137.5,121.5C 137.245,125.07 136.245,125.403 134.5,122.5C 134.657,121.127 134.49,119.793 134,118.5C 132.899,123.594 132.232,128.594 132,133.5C 130.283,134.388 129.116,133.721 128.5,131.5C 129.636,129.682 130.303,127.682 130.5,125.5C 130.291,124.006 129.624,122.839 128.5,122C 130.192,120.599 130.859,118.766 130.5,116.5C 131.809,115.376 132.475,113.876 132.5,112C 131.744,108.875 131.411,105.709 131.5,102.5C 133.144,102.286 134.644,102.62 136,103.5C 136.317,101.699 136.984,101.366 138,102.5C 138.5,102 139,101.5 139.5,101C 138.289,100.107 138.289,99.2739 139.5,98.5C 140.386,99.325 140.719,100.325 140.5,101.5C 141.5,101.5 142.5,101.5 143.5,101.5C 143.351,102.552 143.517,103.552 144,104.5C 144.186,101.964 144.686,99.631 145.5,97.5 Z"/></g>
<g><path style="opacity:0.27" fill="#050302" d="M 199.5,99.5 C 201.028,100.802 202.028,102.469 202.5,104.5C 202.41,107.152 203.076,109.485 204.5,111.5C 205.354,120.805 205.687,130.139 205.5,139.5C 204.391,139.443 203.391,139.11 202.5,138.5C 201.5,138.5 200.5,138.5 199.5,138.5C 191.873,135.229 184.873,136.229 178.5,141.5C 176.597,141.796 174.93,142.463 173.5,143.5C 168.177,140.417 162.677,137.417 157,134.5C 155.985,130.56 155.485,126.56 155.5,122.5C 156.784,119.598 157.784,116.598 158.5,113.5C 160.059,111.392 161.392,109.059 162.5,106.5C 167.985,105.833 173.319,105.167 178.5,104.5C 184.426,104.182 190.093,102.849 195.5,100.5C 196.833,100.167 198.167,99.8333 199.5,99.5 Z M 190.5,116.5 C 184.646,117.772 178.646,118.938 172.5,120C 171.24,121.814 171.24,123.647 172.5,125.5C 179.718,124.469 187.052,124.469 194.5,125.5C 195.647,123.235 195.814,120.902 195,118.5C 193.951,116.893 192.451,116.227 190.5,116.5 Z"/></g>
<g><path style="opacity:1" fill="#735439" d="M 199.5,99.5 C 200.209,98.596 201.209,98.2627 202.5,98.5C 202.5,100.5 202.5,102.5 202.5,104.5C 202.028,102.469 201.028,100.802 199.5,99.5 Z"/></g>
<g><path style="opacity:1" fill="#ebbe80" d="M 94.5,95.5 C 95.7479,98.9416 96.5812,102.608 97,106.5C 97.3333,104.167 97.6667,101.833 98,99.5C 98.121,101.727 98.9544,103.56 100.5,105C 99.8333,106.667 99.1667,108.333 98.5,110C 99.3081,110.308 99.9747,110.808 100.5,111.5C 100.154,112.696 99.6543,112.696 99,111.5C 98.2195,112.944 98.3861,114.277 99.5,115.5C 100.983,113.054 102.149,113.388 103,116.5C 102.009,113.756 102.343,111.089 104,108.5C 107.048,109.783 107.215,111.449 104.5,113.5C 105.052,115.003 105.052,116.669 104.5,118.5C 103.533,119.806 102.199,120.473 100.5,120.5C 100.649,119.448 100.483,118.448 100,117.5C 99.6667,119.167 99.3333,120.833 99,122.5C 98.0255,120.122 97.3589,120.456 97,123.5C 96.5899,122.099 96.0899,120.766 95.5,119.5C 94.1633,114.329 93.33,114.662 93,120.5C 92.1628,118.649 91.3295,116.816 90.5,115C 89.8333,114.333 89.1667,114.333 88.5,115C 89.4506,115.718 89.6172,116.551 89,117.5C 88.3333,116.167 87.6667,116.167 87,117.5C 86.5357,116.906 86.369,116.239 86.5,115.5C 90.3008,109.24 92.9674,102.573 94.5,95.5 Z"/></g>
<g><path style="opacity:1" fill="#6a4327" d="M 211.5,86.5 C 212.315,87.4293 213.148,88.4293 214,89.5C 214.278,88.5842 214.778,87.9175 215.5,87.5C 215.833,87.5 216.167,87.5 216.5,87.5C 213.768,90.8241 213.101,94.4907 214.5,98.5C 209.825,102.85 206.991,108.184 206,114.5C 205.917,112.494 205.417,111.494 204.5,111.5C 203.076,109.485 202.41,107.152 202.5,104.5C 203.833,104.5 205.167,104.5 206.5,104.5C 206.481,102.94 206.148,101.44 205.5,100C 207.289,96.435 207.956,92.6017 207.5,88.5C 209.483,88.8432 210.817,88.1765 211.5,86.5 Z"/></g>
<g><path style="opacity:1" fill="#e8b675" d="M 130.5,109.5 C 129.732,108.737 129.232,107.737 129,106.5C 127.491,109.329 127.325,112.162 128.5,115C 128.145,120.877 127.145,126.543 125.5,132C 127.25,133.754 127.917,135.921 127.5,138.5C 126.167,138.5 124.833,138.5 123.5,138.5C 123.682,136.409 123.348,134.409 122.5,132.5C 121.675,131.614 120.675,131.281 119.5,131.5C 119.649,132.552 119.483,133.552 119,134.5C 118.798,132.744 118.298,131.078 117.5,129.5C 116.813,131.274 115.98,132.941 115,134.5C 114.155,131.87 114.655,129.536 116.5,127.5C 115.675,126.614 114.675,126.281 113.5,126.5C 113.664,129.187 113.497,131.854 113,134.5C 112.133,129.028 111.3,123.694 110.5,118.5C 110.181,116.25 110.681,114.25 112,112.5C 112.186,114.9 112.686,117.234 113.5,119.5C 115.053,114.99 115.886,110.324 116,105.5C 116.242,107.138 117.075,108.638 118.5,110C 119.448,110.483 120.448,110.649 121.5,110.5C 121.5,108.5 121.5,106.5 121.5,104.5C 120.167,104.5 118.833,104.5 117.5,104.5C 119.031,100.447 119.697,95.4471 119.5,89.5C 120.425,90.6405 121.259,90.6405 122,89.5C 122.167,90 122.333,90.5 122.5,91C 120.576,94.6261 120.076,98.4595 121,102.5C 121.333,100.167 121.667,97.8333 122,95.5C 122.667,98.1667 123.333,100.833 124,103.5C 124.059,98.6519 124.726,93.9852 126,89.5C 129.32,92.3941 129.82,95.5608 127.5,99C 127.796,100.888 128.296,102.722 129,104.5C 129.333,104.167 129.667,103.833 130,103.5C 130.495,105.473 130.662,107.473 130.5,109.5 Z"/></g>
<g><path style="opacity:1" fill="#f0c98d" d="M 87.5,79.5 C 87.0105,82.7994 87.6772,86.1328 89.5,89.5C 91.204,90.8229 92.5373,90.4896 93.5,88.5C 90.715,87.3857 89.0483,85.3857 88.5,82.5C 89.322,80.6115 90.1553,78.6115 91,76.5C 91.2022,78.2556 91.7022,79.9223 92.5,81.5C 93.1667,77.5 93.8333,73.5 94.5,69.5C 95.1934,75.5117 95.6934,81.8451 96,88.5C 96.1922,86.4233 96.6922,84.4233 97.5,82.5C 98.3214,85.4465 98.8214,88.4465 99,91.5C 99.1909,89.2922 99.6909,87.2922 100.5,85.5C 101.29,84.3915 101.79,83.0581 102,81.5C 102.667,86.5 102.667,91.5 102,96.5C 101.667,93.8333 101.333,91.1667 101,88.5C 100.333,91.8333 100.333,95.1667 101,98.5C 101.414,98.0426 101.914,97.7093 102.5,97.5C 103.324,94.2152 103.824,90.8818 104,87.5C 104.5,87 105,86.5 105.5,86C 105.353,84.0258 105.019,82.0258 104.5,80C 105.09,78.4905 105.756,76.9905 106.5,75.5C 107.338,81.6561 107.505,87.9894 107,94.5C 107.333,91.8333 107.667,89.1667 108,86.5C 108.333,89.5 108.667,92.5 109,95.5C 109.419,94.3279 110.085,93.3279 111,92.5C 111.175,96.211 111.675,99.8776 112.5,103.5C 113.167,103.833 113.833,104.167 114.5,104.5C 116.041,100.843 117.041,97.0098 117.5,93C 117.167,92.8333 116.833,92.6667 116.5,92.5C 115.833,93.8333 115.167,95.1667 114.5,96.5C 113.23,92.4842 113.23,88.4842 114.5,84.5C 113.846,82.8849 113.346,81.2182 113,79.5C 111.672,90.1668 111.005,90.1668 111,79.5C 114.552,78.0284 116.218,79.3617 116,83.5C 116.414,83.0426 116.914,82.7093 117.5,82.5C 119.255,78.7222 119.922,74.7222 119.5,70.5C 121.779,75.9214 123.612,81.5881 125,87.5C 128.804,85.1679 132.971,83.6679 137.5,83C 136.944,82.6174 136.611,82.1174 136.5,81.5C 138.26,84.7006 139.094,88.3673 139,92.5C 139.333,91.1667 139.667,89.8333 140,88.5C 140.333,91.5 140.667,94.5 141,97.5C 141.333,96.1667 141.667,94.8333 142,93.5C 142.889,94.8882 143.389,94.7215 143.5,93C 142.67,91.5349 142.504,90.0349 143,88.5C 144.523,90.5692 145.357,92.9026 145.5,95.5C 144.448,95.3505 143.448,95.5172 142.5,96C 143.737,96.2321 144.737,96.7321 145.5,97.5C 144.686,99.631 144.186,101.964 144,104.5C 143.517,103.552 143.351,102.552 143.5,101.5C 142.5,101.5 141.5,101.5 140.5,101.5C 140.719,100.325 140.386,99.325 139.5,98.5C 138.289,99.2739 138.289,100.107 139.5,101C 139,101.5 138.5,102 138,102.5C 136.984,101.366 136.317,101.699 136,103.5C 134.644,102.62 133.144,102.286 131.5,102.5C 131.411,105.709 131.744,108.875 132.5,112C 132.475,113.876 131.809,115.376 130.5,116.5C 130.5,114.167 130.5,111.833 130.5,109.5C 130.662,107.473 130.495,105.473 130,103.5C 129.667,103.833 129.333,104.167 129,104.5C 128.296,102.722 127.796,100.888 127.5,99C 129.82,95.5608 129.32,92.3941 126,89.5C 124.726,93.9852 124.059,98.6519 124,103.5C 123.333,100.833 122.667,98.1667 122,95.5C 121.667,97.8333 121.333,100.167 121,102.5C 120.076,98.4595 120.576,94.6261 122.5,91C 122.333,90.5 122.167,90 122,89.5C 121.259,90.6405 120.425,90.6405 119.5,89.5C 119.697,95.4471 119.031,100.447 117.5,104.5C 118.833,104.5 120.167,104.5 121.5,104.5C 121.5,106.5 121.5,108.5 121.5,110.5C 120.448,110.649 119.448,110.483 118.5,110C 117.075,108.638 116.242,107.138 116,105.5C 115.886,110.324 115.053,114.99 113.5,119.5C 112.686,117.234 112.186,114.9 112,112.5C 110.681,114.25 110.181,116.25 110.5,118.5C 110.5,121.833 110.5,125.167 110.5,128.5C 107.074,128.65 106.741,127.484 109.5,125C 108.875,122.2 108.208,119.366 107.5,116.5C 106.482,117.193 105.482,117.859 104.5,118.5C 105.052,116.669 105.052,115.003 104.5,113.5C 107.215,111.449 107.048,109.783 104,108.5C 102.343,111.089 102.009,113.756 103,116.5C 102.149,113.388 100.983,113.054 99.5,115.5C 98.3861,114.277 98.2195,112.944 99,111.5C 99.6543,112.696 100.154,112.696 100.5,111.5C 99.9747,110.808 99.3081,110.308 98.5,110C 99.1667,108.333 99.8333,106.667 100.5,105C 98.9544,103.56 98.121,101.727 98,99.5C 97.6667,101.833 97.3333,104.167 97,106.5C 96.5812,102.608 95.7479,98.9416 94.5,95.5C 93.1266,95.6567 91.7932,95.49 90.5,95C 86.6729,91.366 84.6729,86.866 84.5,81.5C 85.3291,75.6466 86.1625,69.6466 87,63.5C 87.3194,68.9754 87.4861,74.3087 87.5,79.5 Z"/></g>
<g><path style="opacity:0.812" fill="#271e16" d="M 87.5,79.5 C 87.5569,80.609 87.8902,81.609 88.5,82.5C 89.0483,85.3857 90.715,87.3857 93.5,88.5C 92.5373,90.4896 91.204,90.8229 89.5,89.5C 87.6772,86.1328 87.0105,82.7994 87.5,79.5 Z"/></g>
<g><path style="opacity:1" fill="#6a4427" d="M 230.5,86.5 C 233.707,91.6566 235.207,97.3232 235,103.5C 231.495,106.169 227.662,108.169 223.5,109.5C 224.241,115.471 224.575,121.471 224.5,127.5C 229.483,128.827 234.483,130.16 239.5,131.5C 239.605,135.548 239.272,139.548 238.5,143.5C 237.679,140.359 237.179,137.025 237,133.5C 236.814,136.036 236.314,138.369 235.5,140.5C 235.5,137.833 235.5,135.167 235.5,132.5C 230.689,132.173 226.189,130.84 222,128.5C 221.442,121.81 221.109,115.143 221,108.5C 225.761,106.715 229.594,103.882 232.5,100C 232.138,95.9861 230.804,92.4861 228.5,89.5C 228.082,88.7784 227.416,88.2784 226.5,88C 228.058,87.79 229.391,87.29 230.5,86.5 Z"/></g>
<g><path style="opacity:1" fill="#805433" d="M 230.5,86.5 C 229.391,87.29 228.058,87.79 226.5,88C 227.416,88.2784 228.082,88.7784 228.5,89.5C 224.563,89.2065 220.73,89.5399 217,90.5C 216.518,94.1421 215.852,97.8088 215,101.5C 212.213,103.955 210.046,106.955 208.5,110.5C 208.138,118.803 207.972,127.137 208,135.5C 207.28,142.265 206.113,148.932 204.5,155.5C 201.93,160.311 199.597,165.311 197.5,170.5C 196.637,171.463 195.97,171.463 195.5,170.5C 197.453,166.931 199.119,163.264 200.5,159.5C 201.43,154.378 202.764,149.378 204.5,144.5C 204.366,142.708 204.699,141.042 205.5,139.5C 205.687,130.139 205.354,120.805 204.5,111.5C 205.417,111.494 205.917,112.494 206,114.5C 206.991,108.184 209.825,102.85 214.5,98.5C 213.101,94.4907 213.768,90.8241 216.5,87.5C 221.119,86.6864 225.786,86.3531 230.5,86.5 Z"/></g>
<g><path style="opacity:1" fill="#9f6337" d="M 228.5,89.5 C 230.804,92.4861 232.138,95.9861 232.5,100C 229.594,103.882 225.761,106.715 221,108.5C 221.109,115.143 221.442,121.81 222,128.5C 226.189,130.84 230.689,132.173 235.5,132.5C 235.5,135.167 235.5,137.833 235.5,140.5C 235.5,141.5 235.5,142.5 235.5,143.5C 234.504,143.414 233.671,143.748 233,144.5C 232.25,143.874 231.416,143.374 230.5,143C 230.909,140.053 231.909,137.386 233.5,135C 231.711,134.48 230.044,134.813 228.5,136C 229.428,136.388 230.095,137.055 230.5,138C 229.151,140.731 228.318,143.565 228,146.5C 227.692,145.692 227.192,145.025 226.5,144.5C 223.982,146.873 220.982,147.873 217.5,147.5C 217.33,146.178 217.663,145.011 218.5,144C 216.084,142.937 213.584,142.104 211,141.5C 208.534,146.038 206.367,150.705 204.5,155.5C 206.113,148.932 207.28,142.265 208,135.5C 207.972,127.137 208.138,118.803 208.5,110.5C 210.046,106.955 212.213,103.955 215,101.5C 215.852,97.8088 216.518,94.1421 217,90.5C 220.73,89.5399 224.563,89.2065 228.5,89.5 Z"/></g>
<g><path style="opacity:1" fill="#875b3a" d="M 22.5,101.5 C 25.1019,103.81 28.1019,105.643 31.5,107C 32.9904,107.745 33.9904,108.912 34.5,110.5C 33.8164,116.519 32.983,122.519 32,128.5C 27.9698,130.456 23.8031,132.122 19.5,133.5C 18.7264,137.792 18.7264,142.125 19.5,146.5C 21.7354,146.205 23.7354,146.539 25.5,147.5C 23.4727,147.338 21.4727,147.505 19.5,148C 20.056,148.383 20.3893,148.883 20.5,149.5C 18.8762,149.64 17.7096,148.973 17,147.5C 15.6823,142.166 15.5156,136.833 16.5,131.5C 21.0694,129.963 25.5694,128.296 30,126.5C 30.5307,120.829 31.0307,115.162 31.5,109.5C 27.6135,107.585 23.6135,105.752 19.5,104C 18.2089,102.708 18.2089,101.542 19.5,100.5C 19.369,101.239 19.5357,101.906 20,102.5C 20.3333,101.5 20.6667,100.5 21,99.5C 21.2784,100.416 21.7784,101.082 22.5,101.5 Z"/></g>
<g><path style="opacity:1" fill="#af7647" d="M 199.5,138.5 C 197.5,138.833 195.5,139.167 193.5,139.5C 191.317,143.21 189.65,147.21 188.5,151.5C 187.5,151.5 186.5,151.5 185.5,151.5C 183.708,151.366 182.042,151.699 180.5,152.5C 180.484,150.371 181.151,148.538 182.5,147C 182.167,146.667 181.833,146.333 181.5,146C 182.672,145.581 183.672,144.915 184.5,144C 183.562,142.937 182.562,141.77 181.5,140.5C 180.583,141.127 179.583,141.461 178.5,141.5C 184.873,136.229 191.873,135.229 199.5,138.5 Z"/></g>
<g><path style="opacity:1" fill="#7d502e" d="M 199.5,138.5 C 200.5,138.5 201.5,138.5 202.5,138.5C 197.493,142.344 193.327,147.011 190,152.5C 189.617,151.944 189.117,151.611 188.5,151.5C 189.65,147.21 191.317,143.21 193.5,139.5C 195.5,139.167 197.5,138.833 199.5,138.5 Z"/></g>
<g><path style="opacity:1" fill="#5b3920" d="M 202.5,138.5 C 203.391,139.11 204.391,139.443 205.5,139.5C 204.699,141.042 204.366,142.708 204.5,144.5C 198.435,145.172 195.601,148.839 196,155.5C 196.717,156.044 197.217,156.711 197.5,157.5C 193.461,155.481 189.461,153.481 185.5,151.5C 186.5,151.5 187.5,151.5 188.5,151.5C 189.117,151.611 189.617,151.944 190,152.5C 193.327,147.011 197.493,142.344 202.5,138.5 Z"/></g>
<g><path style="opacity:1" fill="#382213" d="M 204.5,144.5 C 202.764,149.378 201.43,154.378 200.5,159.5C 200.167,159.5 199.833,159.5 199.5,159.5C 198.833,158.833 198.167,158.167 197.5,157.5C 197.217,156.711 196.717,156.044 196,155.5C 195.601,148.839 198.435,145.172 204.5,144.5 Z"/></g>
<g><path style="opacity:1" fill="#dd9d5b" d="M 130.5,109.5 C 130.5,111.833 130.5,114.167 130.5,116.5C 130.859,118.766 130.192,120.599 128.5,122C 129.624,122.839 130.291,124.006 130.5,125.5C 130.303,127.682 129.636,129.682 128.5,131.5C 129.116,133.721 130.283,134.388 132,133.5C 132.232,128.594 132.899,123.594 134,118.5C 134.49,119.793 134.657,121.127 134.5,122.5C 136.122,126.019 135.788,129.352 133.5,132.5C 134.59,134.003 135.757,134.336 137,133.5C 138.225,138.737 137.059,143.237 133.5,147C 134.167,148.333 134.833,149.667 135.5,151C 134.761,153.028 134.428,155.195 134.5,157.5C 132.621,157.607 132.288,157.107 133.5,156C 131.329,152.659 129.995,148.992 129.5,145C 129.957,144.586 130.291,144.086 130.5,143.5C 129.313,142.481 128.313,141.314 127.5,140C 124.431,139.064 123.764,139.898 125.5,142.5C 125.439,146.07 123.773,148.403 120.5,149.5C 121.628,150.262 122.795,150.929 124,151.5C 124.667,150.167 125.333,150.167 126,151.5C 126.604,149.314 127.77,149.148 129.5,151C 128.051,152.117 126.384,152.784 124.5,153C 128.123,155.974 128.457,158.474 125.5,160.5C 126.423,162.129 126.757,163.629 126.5,165C 125.109,166.02 123.609,166.853 122,167.5C 121.578,165.645 121.078,163.811 120.5,162C 120.82,160.347 121.82,159.347 123.5,159C 120.617,158.205 119.117,159.371 119,162.5C 116.369,156.889 115.035,157.222 115,163.5C 114.751,162.376 114.251,161.376 113.5,160.5C 113.167,160.667 112.833,160.833 112.5,161C 113.131,163.355 113.131,165.522 112.5,167.5C 109.697,169.314 106.864,170.981 104,172.5C 103.539,168.468 102.039,167.801 99.5,170.5C 93.5789,169.877 88.7456,171.877 85,176.5C 82.6397,179.36 80.473,182.36 78.5,185.5C 77.3112,186.429 75.9778,186.762 74.5,186.5C 71.5325,193.718 66.8658,194.551 60.5,189C 61.7101,187.961 62.7101,186.794 63.5,185.5C 64.973,183.605 66.6397,181.939 68.5,180.5C 72.6402,177.858 76.3069,174.692 79.5,171C 78.9056,170.536 78.2389,170.369 77.5,170.5C 77.7373,169.209 77.404,168.209 76.5,167.5C 76.5,167.167 76.5,166.833 76.5,166.5C 77.1174,166.389 77.6174,166.056 78,165.5C 78.49,166.793 78.6567,168.127 78.5,169.5C 79.552,169.649 80.552,169.483 81.5,169C 80.5494,168.282 80.3828,167.449 81,166.5C 83.0545,166.152 85.0545,166.819 87,168.5C 87.5,168 88,167.5 88.5,167C 86.8839,166.385 85.5505,165.385 84.5,164C 88.1044,162.666 89.271,160.166 88,156.5C 86.1745,157.571 85.0079,156.904 84.5,154.5C 86.4747,153.422 88.308,153.755 90,155.5C 90.2835,153.114 91.2835,152.448 93,153.5C 96.3673,152.447 98.034,150.114 98,146.5C 98.3333,146.833 98.6667,147.167 99,147.5C 99.6667,146.5 99.6667,145.5 99,144.5C 97.8647,144.727 96.698,145.06 95.5,145.5C 95.7093,146.086 96.0426,146.586 96.5,147C 95.7734,148.399 95.2734,149.899 95,151.5C 91.9375,146.044 93.4375,143.378 99.5,143.5C 99.8275,138.456 99.4941,133.456 98.5,128.5C 97.5,128 96.5,127.5 95.5,127C 97.4884,126.82 99.4884,126.986 101.5,127.5C 101.237,135.237 101.237,142.904 101.5,150.5C 102.72,150.113 103.387,149.28 103.5,148C 103.815,145.431 103.815,142.764 103.5,140C 105.774,137.675 106.941,134.841 107,131.5C 108.783,134.892 108.949,138.392 107.5,142C 108.126,142.75 108.626,143.584 109,144.5C 109.309,143.234 109.809,142.067 110.5,141C 109.341,136.881 109.341,132.714 110.5,128.5C 110.5,125.167 110.5,121.833 110.5,118.5C 111.3,123.694 112.133,129.028 113,134.5C 113.497,131.854 113.664,129.187 113.5,126.5C 114.675,126.281 115.675,126.614 116.5,127.5C 114.655,129.536 114.155,131.87 115,134.5C 115.98,132.941 116.813,131.274 117.5,129.5C 118.298,131.078 118.798,132.744 119,134.5C 119.483,133.552 119.649,132.552 119.5,131.5C 120.675,131.281 121.675,131.614 122.5,132.5C 123.348,134.409 123.682,136.409 123.5,138.5C 124.833,138.5 126.167,138.5 127.5,138.5C 127.917,135.921 127.25,133.754 125.5,132C 127.145,126.543 128.145,120.877 128.5,115C 127.325,112.162 127.491,109.329 129,106.5C 129.232,107.737 129.732,108.737 130.5,109.5 Z"/></g>
<g><path style="opacity:1" fill="#8b5831" d="M 47.5,143.5 C 47.998,147.27 48.998,150.937 50.5,154.5C 50.5,155.5 50.5,156.5 50.5,157.5C 46.5226,158.482 42.5226,159.482 38.5,160.5C 36.8855,156.991 35.8855,153.325 35.5,149.5C 36.2389,149.369 36.9056,149.536 37.5,150C 36.3044,150.654 36.3044,151.154 37.5,151.5C 39.9715,148.945 42.9715,147.445 46.5,147C 47.3366,145.989 47.67,144.822 47.5,143.5 Z"/></g>
<g><path style="opacity:1" fill="#e6b271" d="M 95.5,119.5 C 94.5965,124.691 92.4298,129.358 89,133.5C 87.6491,133.554 86.4824,133.054 85.5,132C 85.6465,130.273 86.3131,130.106 87.5,131.5C 88.8641,129.909 89.6974,128.242 90,126.5C 89.6667,126.833 89.3333,127.167 89,127.5C 88.6667,126.5 88.3333,125.5 88,124.5C 84.6763,129.313 83.6763,134.647 85,140.5C 85.3333,139.167 85.6667,137.833 86,136.5C 87.518,138.614 87.8513,140.947 87,143.5C 85.3333,145.833 83.6667,148.167 82,150.5C 81.6988,153.98 80.8655,157.313 79.5,160.5C 78.6919,160.192 78.0253,159.692 77.5,159C 78.4585,157.293 79.1252,155.459 79.5,153.5C 78.628,151.607 78.628,149.607 79.5,147.5C 79.1667,146.5 78.8333,145.5 78.5,144.5C 78.1667,145 77.8333,145.5 77.5,146C 76.8605,150.848 76.1938,155.681 75.5,160.5C 78.8268,162.747 78.8268,164.247 75.5,165C 76.056,165.383 76.3893,165.883 76.5,166.5C 76.5,166.833 76.5,167.167 76.5,167.5C 75.7839,167.783 74.9506,168.116 74,168.5C 73.8333,168 73.6667,167.5 73.5,167C 74.4929,164.547 74.6595,162.047 74,159.5C 72.8118,160.563 72.3118,161.897 72.5,163.5C 68.9007,163.738 68.5673,162.738 71.5,160.5C 70.2359,156.847 70.2359,153.18 71.5,149.5C 72.4655,148.086 73.4655,147.253 74.5,147C 73.763,144.201 72.9297,144.034 72,146.5C 71.8333,146 71.6667,145.5 71.5,145C 72.8847,143.403 73.5514,141.57 73.5,139.5C 78.8954,132.04 83.2287,124.04 86.5,115.5C 86.369,116.239 86.5357,116.906 87,117.5C 87.6667,116.167 88.3333,116.167 89,117.5C 89.6172,116.551 89.4506,115.718 88.5,115C 89.1667,114.333 89.8333,114.333 90.5,115C 91.3295,116.816 92.1628,118.649 93,120.5C 93.33,114.662 94.1633,114.329 95.5,119.5 Z"/></g>
<g><path style="opacity:0.303" fill="#040201" d="M 185.5,151.5 C 189.461,153.481 193.461,155.481 197.5,157.5C 198.167,158.167 198.833,158.833 199.5,159.5C 191.083,179.584 176.75,193.584 156.5,201.5C 156.062,201.565 155.728,201.399 155.5,201C 158.371,198.297 161.038,195.464 163.5,192.5C 166.636,189.571 169.303,186.238 171.5,182.5C 172.11,181.609 172.443,180.609 172.5,179.5C 175.387,172.95 176.387,166.283 175.5,159.5C 175.739,157.533 175.406,155.699 174.5,154C 176.586,153.685 178.586,153.185 180.5,152.5C 182.042,151.699 183.708,151.366 185.5,151.5 Z"/></g>
<g><path style="opacity:1" fill="#935930" d="M 235.5,143.5 C 235.5,144.833 235.5,146.167 235.5,147.5C 230.134,147.042 224.967,147.709 220,149.5C 218.736,155.358 216.903,161.025 214.5,166.5C 215.434,169.102 217.101,171.102 219.5,172.5C 218.587,174.086 218.587,175.586 219.5,177C 219,177.5 218.5,178 218,178.5C 216.598,176.367 214.765,174.7 212.5,173.5C 213.288,171.671 212.788,170.004 211,168.5C 210.405,169.899 210.572,171.232 211.5,172.5C 211,172.833 210.5,173.167 210,173.5C 208.51,172.683 207.01,171.85 205.5,171C 206.337,169.989 206.67,168.822 206.5,167.5C 204.856,167.286 203.356,167.62 202,168.5C 201.667,167.833 201.333,167.167 201,166.5C 200.044,167.579 199.211,168.745 198.5,170C 200.661,174.448 199.328,176.615 194.5,176.5C 196.025,174.784 197.025,172.784 197.5,170.5C 199.597,165.311 201.93,160.311 204.5,155.5C 206.367,150.705 208.534,146.038 211,141.5C 213.584,142.104 216.084,142.937 218.5,144C 217.663,145.011 217.33,146.178 217.5,147.5C 220.982,147.873 223.982,146.873 226.5,144.5C 227.192,145.025 227.692,145.692 228,146.5C 228.318,143.565 229.151,140.731 230.5,138C 230.095,137.055 229.428,136.388 228.5,136C 230.044,134.813 231.711,134.48 233.5,135C 231.909,137.386 230.909,140.053 230.5,143C 231.416,143.374 232.25,143.874 233,144.5C 233.671,143.748 234.504,143.414 235.5,143.5 Z"/></g>
<g><path style="opacity:1" fill="#e0a361" d="M 155.5,122.5 C 155.485,126.56 155.985,130.56 157,134.5C 162.677,137.417 168.177,140.417 173.5,143.5C 174.5,143.5 175.5,143.5 176.5,143.5C 177.095,146.654 177.095,149.654 176.5,152.5C 175.5,152.5 174.5,152.5 173.5,152.5C 171.763,155.634 170.263,158.634 169,161.5C 167.409,159.073 166.575,156.407 166.5,153.5C 164.007,153.671 162.174,152.671 161,150.5C 160.147,152.125 159.147,152.458 158,151.5C 157.416,154.257 157.75,156.923 159,159.5C 160.06,159.746 161.227,159.746 162.5,159.5C 163.799,161.307 163.632,162.973 162,164.5C 161.385,162.884 160.385,161.551 159,160.5C 156.014,164.713 154.681,164.379 155,159.5C 155.914,160.654 156.747,160.487 157.5,159C 156.692,157.294 155.359,156.461 153.5,156.5C 153.5,157.5 153.5,158.5 153.5,159.5C 152.448,159.649 151.448,159.483 150.5,159C 151.458,157.853 151.125,156.853 149.5,156C 149.833,155.667 150.167,155.333 150.5,155C 149.809,153.933 149.309,152.766 149,151.5C 148.421,155.203 148.588,158.869 149.5,162.5C 146.289,161.629 143.956,159.629 142.5,156.5C 141.82,163.714 140.653,164.047 139,157.5C 138.86,160.043 138.194,162.377 137,164.5C 135.077,161.194 133.077,161.528 131,165.5C 129.156,163.829 128.49,161.829 129,159.5C 129.333,160.5 129.667,161.5 130,162.5C 130.309,161.234 130.809,160.067 131.5,159C 132.951,159.263 134.284,159.096 135.5,158.5C 135.376,157.893 135.043,157.56 134.5,157.5C 134.428,155.195 134.761,153.028 135.5,151C 134.833,149.667 134.167,148.333 133.5,147C 137.059,143.237 138.225,138.737 137,133.5C 135.757,134.336 134.59,134.003 133.5,132.5C 135.788,129.352 136.122,126.019 134.5,122.5C 136.245,125.403 137.245,125.07 137.5,121.5C 137.471,119.357 136.804,118.023 135.5,117.5C 135.818,116.353 136.484,115.519 137.5,115C 136.692,114.692 136.025,114.192 135.5,113.5C 137.193,112.772 138.693,111.772 140,110.5C 140.14,112.256 139.64,113.922 138.5,115.5C 138.855,118.226 140.188,120.226 142.5,121.5C 143.739,119.993 143.405,118.826 141.5,118C 143.538,116.764 144.705,114.931 145,112.5C 145.758,114.769 145.591,116.936 144.5,119C 146.049,120.214 147.215,121.714 148,123.5C 148.333,122.5 148.667,121.5 149,120.5C 149.725,122.158 150.892,122.658 152.5,122C 151.289,121.107 151.289,120.274 152.5,119.5C 153.308,121.423 153.808,123.423 154,125.5C 154.232,124.263 154.732,123.263 155.5,122.5 Z"/></g>
<g><path style="opacity:1" fill="#e3a966" d="M 110.5,128.5 C 109.341,132.714 109.341,136.881 110.5,141C 109.809,142.067 109.309,143.234 109,144.5C 108.626,143.584 108.126,142.75 107.5,142C 108.949,138.392 108.783,134.892 107,131.5C 106.941,134.841 105.774,137.675 103.5,140C 103.815,142.764 103.815,145.431 103.5,148C 103.387,149.28 102.72,150.113 101.5,150.5C 101.237,142.904 101.237,135.237 101.5,127.5C 99.4884,126.986 97.4884,126.82 95.5,127C 96.5,127.5 97.5,128 98.5,128.5C 99.4941,133.456 99.8275,138.456 99.5,143.5C 93.4375,143.378 91.9375,146.044 95,151.5C 95.2734,149.899 95.7734,148.399 96.5,147C 96.0426,146.586 95.7093,146.086 95.5,145.5C 96.698,145.06 97.8647,144.727 99,144.5C 99.6667,145.5 99.6667,146.5 99,147.5C 98.6667,147.167 98.3333,146.833 98,146.5C 98.034,150.114 96.3673,152.447 93,153.5C 91.2835,152.448 90.2835,153.114 90,155.5C 88.308,153.755 86.4747,153.422 84.5,154.5C 85.0079,156.904 86.1745,157.571 88,156.5C 89.271,160.166 88.1044,162.666 84.5,164C 85.5505,165.385 86.8839,166.385 88.5,167C 88,167.5 87.5,168 87,168.5C 85.0545,166.819 83.0545,166.152 81,166.5C 80.3828,167.449 80.5494,168.282 81.5,169C 80.552,169.483 79.552,169.649 78.5,169.5C 78.6567,168.127 78.49,166.793 78,165.5C 77.6174,166.056 77.1174,166.389 76.5,166.5C 76.3893,165.883 76.056,165.383 75.5,165C 78.8268,164.247 78.8268,162.747 75.5,160.5C 76.1938,155.681 76.8605,150.848 77.5,146C 77.8333,145.5 78.1667,145 78.5,144.5C 78.8333,145.5 79.1667,146.5 79.5,147.5C 78.628,149.607 78.628,151.607 79.5,153.5C 79.1252,155.459 78.4585,157.293 77.5,159C 78.0253,159.692 78.6919,160.192 79.5,160.5C 80.8655,157.313 81.6988,153.98 82,150.5C 83.6667,148.167 85.3333,145.833 87,143.5C 87.8513,140.947 87.518,138.614 86,136.5C 85.6667,137.833 85.3333,139.167 85,140.5C 83.6763,134.647 84.6763,129.313 88,124.5C 88.3333,125.5 88.6667,126.5 89,127.5C 89.3333,127.167 89.6667,126.833 90,126.5C 89.6974,128.242 88.8641,129.909 87.5,131.5C 86.3131,130.106 85.6465,130.273 85.5,132C 86.4824,133.054 87.6491,133.554 89,133.5C 92.4298,129.358 94.5965,124.691 95.5,119.5C 96.0899,120.766 96.5899,122.099 97,123.5C 97.3589,120.456 98.0255,120.122 99,122.5C 99.3333,120.833 99.6667,119.167 100,117.5C 100.483,118.448 100.649,119.448 100.5,120.5C 102.199,120.473 103.533,119.806 104.5,118.5C 105.482,117.859 106.482,117.193 107.5,116.5C 108.208,119.366 108.875,122.2 109.5,125C 106.741,127.484 107.074,128.65 110.5,128.5 Z"/></g>
<g><path style="opacity:1" fill="#684124" d="M 25.5,147.5 C 29.0399,147.753 32.3733,148.419 35.5,149.5C 35.8855,153.325 36.8855,156.991 38.5,160.5C 42.5226,159.482 46.5226,158.482 50.5,157.5C 50.5,156.5 50.5,155.5 50.5,154.5C 51.807,156.223 51.807,158.057 50.5,160C 46.3628,161.657 42.1961,163.157 38,164.5C 37.6174,163.944 37.1174,163.611 36.5,163.5C 35.0242,159.381 33.6908,155.214 32.5,151C 28.3123,150.824 24.3123,150.324 20.5,149.5C 20.3893,148.883 20.056,148.383 19.5,148C 21.4727,147.505 23.4727,147.338 25.5,147.5 Z"/></g>
<g><path style="opacity:1" fill="#d69351" d="M 134.5,157.5 C 135.043,157.56 135.376,157.893 135.5,158.5C 134.284,159.096 132.951,159.263 131.5,159C 130.809,160.067 130.309,161.234 130,162.5C 129.667,161.5 129.333,160.5 129,159.5C 128.49,161.829 129.156,163.829 131,165.5C 133.077,161.528 135.077,161.194 137,164.5C 138.194,162.377 138.86,160.043 139,157.5C 140.653,164.047 141.82,163.714 142.5,156.5C 143.956,159.629 146.289,161.629 149.5,162.5C 148.588,158.869 148.421,155.203 149,151.5C 149.309,152.766 149.809,153.933 150.5,155C 150.167,155.333 149.833,155.667 149.5,156C 151.125,156.853 151.458,157.853 150.5,159C 151.448,159.483 152.448,159.649 153.5,159.5C 153.5,158.5 153.5,157.5 153.5,156.5C 155.359,156.461 156.692,157.294 157.5,159C 156.747,160.487 155.914,160.654 155,159.5C 154.681,164.379 156.014,164.713 159,160.5C 160.385,161.551 161.385,162.884 162,164.5C 163.632,162.973 163.799,161.307 162.5,159.5C 161.227,159.746 160.06,159.746 159,159.5C 157.75,156.923 157.416,154.257 158,151.5C 159.147,152.458 160.147,152.125 161,150.5C 162.174,152.671 164.007,153.671 166.5,153.5C 166.575,156.407 167.409,159.073 169,161.5C 170.263,158.634 171.763,155.634 173.5,152.5C 174.5,152.5 175.5,152.5 176.5,152.5C 177.095,149.654 177.095,146.654 176.5,143.5C 175.5,143.5 174.5,143.5 173.5,143.5C 174.93,142.463 176.597,141.796 178.5,141.5C 179.583,141.461 180.583,141.127 181.5,140.5C 182.562,141.77 183.562,142.937 184.5,144C 183.672,144.915 182.672,145.581 181.5,146C 181.833,146.333 182.167,146.667 182.5,147C 181.151,148.538 180.484,150.371 180.5,152.5C 178.586,153.185 176.586,153.685 174.5,154C 175.406,155.699 175.739,157.533 175.5,159.5C 175.675,161.621 175.341,163.621 174.5,165.5C 173.12,164.294 171.953,164.627 171,166.5C 170.481,165.484 169.647,164.818 168.5,164.5C 167.137,165.198 165.971,165.198 165,164.5C 163.667,167.082 162.5,169.749 161.5,172.5C 159.844,174.022 158.677,173.689 158,171.5C 155.402,173.613 152.569,174.113 149.5,173C 148.167,174.333 148.167,175.667 149.5,177C 148.747,178.487 147.914,178.654 147,177.5C 146.517,178.448 146.351,179.448 146.5,180.5C 146.167,180.5 145.833,180.5 145.5,180.5C 145.649,179.448 145.483,178.448 145,177.5C 143.355,177.693 141.521,177.86 139.5,178C 139,178.5 138.5,179 138,179.5C 135.546,178.802 133.213,177.802 131,176.5C 129.737,178.797 127.903,179.63 125.5,179C 126.849,177.365 126.682,175.865 125,174.5C 123.837,176.285 123.17,178.285 123,180.5C 122.691,179.234 122.191,178.067 121.5,177C 122.888,176.111 122.722,175.611 121,175.5C 119.347,175.82 118.347,176.82 118,178.5C 116.57,178.306 115.07,178.306 113.5,178.5C 113.704,177.471 113.204,176.471 112,175.5C 109.531,176.147 106.698,176.48 103.5,176.5C 102.585,174.246 101.252,172.246 99.5,170.5C 102.039,167.801 103.539,168.468 104,172.5C 106.864,170.981 109.697,169.314 112.5,167.5C 113.131,165.522 113.131,163.355 112.5,161C 112.833,160.833 113.167,160.667 113.5,160.5C 114.251,161.376 114.751,162.376 115,163.5C 115.035,157.222 116.369,156.889 119,162.5C 119.117,159.371 120.617,158.205 123.5,159C 121.82,159.347 120.82,160.347 120.5,162C 121.078,163.811 121.578,165.645 122,167.5C 123.609,166.853 125.109,166.02 126.5,165C 126.757,163.629 126.423,162.129 125.5,160.5C 128.457,158.474 128.123,155.974 124.5,153C 126.384,152.784 128.051,152.117 129.5,151C 127.77,149.148 126.604,149.314 126,151.5C 125.333,150.167 124.667,150.167 124,151.5C 122.795,150.929 121.628,150.262 120.5,149.5C 123.773,148.403 125.439,146.07 125.5,142.5C 123.764,139.898 124.431,139.064 127.5,140C 128.313,141.314 129.313,142.481 130.5,143.5C 130.291,144.086 129.957,144.586 129.5,145C 129.995,148.992 131.329,152.659 133.5,156C 132.288,157.107 132.621,157.607 134.5,157.5 Z"/></g>
<g><path style="opacity:0.245" fill="#040301" d="M 99.5,170.5 C 101.252,172.246 102.585,174.246 103.5,176.5C 104.026,178.23 105.026,179.564 106.5,180.5C 107.373,182.886 108.873,184.886 111,186.5C 111.494,188.134 111.66,189.801 111.5,191.5C 111.5,192.833 111.5,194.167 111.5,195.5C 111.167,195.5 110.833,195.5 110.5,195.5C 110.328,196.492 110.662,197.158 111.5,197.5C 111.833,197.5 112.167,197.5 112.5,197.5C 112.416,200.327 111.75,202.994 110.5,205.5C 99.9496,203.057 90.2829,198.723 81.5,192.5C 78.9804,190.737 76.6471,188.737 74.5,186.5C 75.9778,186.762 77.3112,186.429 78.5,185.5C 80.473,182.36 82.6397,179.36 85,176.5C 88.7456,171.877 93.5789,169.877 99.5,170.5 Z M 110.5,195.5 C 110.5,193.833 110.5,192.167 110.5,190.5C 105.544,189.118 100.544,188.285 95.5,188C 100.217,191.025 105.217,193.525 110.5,195.5 Z"/></g>
<g><path style="opacity:1" fill="#bc7a44" d="M 174.5,165.5 C 174.876,170.42 172.709,173.753 168,175.5C 167.667,175.167 167.333,174.833 167,174.5C 165.214,176.099 163.047,176.933 160.5,177C 159.333,177.5 158.5,178.333 158,179.5C 156.732,179.384 155.398,179.051 154,178.5C 153.667,179.167 153.333,179.833 153,180.5C 150.734,180.466 148.567,180.466 146.5,180.5C 146.351,179.448 146.517,178.448 147,177.5C 147.914,178.654 148.747,178.487 149.5,177C 148.167,175.667 148.167,174.333 149.5,173C 152.569,174.113 155.402,173.613 158,171.5C 158.677,173.689 159.844,174.022 161.5,172.5C 162.5,169.749 163.667,167.082 165,164.5C 165.971,165.198 167.137,165.198 168.5,164.5C 169.647,164.818 170.481,165.484 171,166.5C 171.953,164.627 173.12,164.294 174.5,165.5 Z"/></g>
<g><path style="opacity:1" fill="#57371e" d="M 78.5,65.5 C 79.3382,65.8417 79.6716,66.5084 79.5,67.5C 78.7611,67.369 78.0944,67.5357 77.5,68C 49.6616,94.1933 42.3283,125.36 55.5,161.5C 51.1203,163.562 46.6203,165.562 42,167.5C 41.0153,169.366 40.5153,171.366 40.5,173.5C 41.1638,177.476 41.4971,181.476 41.5,185.5C 40.5166,189.298 40.1832,193.298 40.5,197.5C 39.6862,195.369 39.1862,193.036 39,190.5C 37.149,192.781 35.4823,192.781 34,190.5C 31.5,186.167 29,181.833 26.5,177.5C 26.6236,176.893 26.9569,176.56 27.5,176.5C 30.6113,178.686 32.778,181.686 34,185.5C 35.2914,181.917 35.7914,178.417 35.5,175C 35.0946,174.055 34.428,173.388 33.5,173C 34.8228,172.184 35.4894,171.017 35.5,169.5C 36.1408,168.518 36.8075,167.518 37.5,166.5C 36.8728,165.583 36.5394,164.583 36.5,163.5C 37.1174,163.611 37.6174,163.944 38,164.5C 42.1961,163.157 46.3628,161.657 50.5,160C 51.807,158.057 51.807,156.223 50.5,154.5C 48.998,150.937 47.998,147.27 47.5,143.5C 43.1133,114.324 51.4467,89.6573 72.5,69.5C 74.2459,67.7484 76.2459,66.4151 78.5,65.5 Z"/></g>
<g><path style="opacity:1" fill="#e0a766" d="M 73.5,139.5 C 73.5514,141.57 72.8847,143.403 71.5,145C 71.6667,145.5 71.8333,146 72,146.5C 72.9297,144.034 73.763,144.201 74.5,147C 73.4655,147.253 72.4655,148.086 71.5,149.5C 70.2359,153.18 70.2359,156.847 71.5,160.5C 68.5673,162.738 68.9007,163.738 72.5,163.5C 72.3118,161.897 72.8118,160.563 74,159.5C 74.6595,162.047 74.4929,164.547 73.5,167C 73.6667,167.5 73.8333,168 74,168.5C 74.9506,168.116 75.7839,167.783 76.5,167.5C 77.404,168.209 77.7373,169.209 77.5,170.5C 74.8774,172.265 71.8774,172.932 68.5,172.5C 62.8236,172.334 57.1569,172.501 51.5,173C 50.3333,174.167 49.1667,175.333 48,176.5C 47.1864,181.02 47.353,185.354 48.5,189.5C 48.5,190.5 48.5,191.5 48.5,192.5C 48.8076,194.924 48.4742,197.257 47.5,199.5C 46.6143,198.675 46.281,197.675 46.5,196.5C 44.7988,196.034 43.2988,196.034 42,196.5C 41.5014,192.848 41.3347,189.182 41.5,185.5C 41.4971,181.476 41.1638,177.476 40.5,173.5C 40.5153,171.366 41.0153,169.366 42,167.5C 46.6203,165.562 51.1203,163.562 55.5,161.5C 59.8333,160.167 64.1667,158.833 68.5,157.5C 67.7727,150.7 69.4394,144.7 73.5,139.5 Z"/></g>
<g><path style="opacity:0.812" fill="#0f0905" d="M 77.5,170.5 C 78.2389,170.369 78.9056,170.536 79.5,171C 76.3069,174.692 72.6402,177.858 68.5,180.5C 66.3757,178.941 64.709,176.941 63.5,174.5C 65.2914,173.83 66.9581,173.163 68.5,172.5C 71.8774,172.932 74.8774,172.265 77.5,170.5 Z"/></g>
<g><path style="opacity:1" fill="#402715" d="M 68.5,172.5 C 66.9581,173.163 65.2914,173.83 63.5,174.5C 64.709,176.941 66.3757,178.941 68.5,180.5C 66.6397,181.939 64.973,183.605 63.5,185.5C 63.2062,183.724 63.0395,181.724 63,179.5C 57.2605,174.921 53.4271,176.588 51.5,184.5C 54.4726,189.461 58.1392,193.795 62.5,197.5C 62.8333,198.167 63.1667,198.833 63.5,199.5C 63.5,199.833 63.5,200.167 63.5,200.5C 62.8826,200.389 62.3826,200.056 62,199.5C 61.7216,200.416 61.2216,201.082 60.5,201.5C 60.2914,200.078 59.7914,198.745 59,197.5C 55.6507,194.318 52.484,190.985 49.5,187.5C 48.7025,187.957 48.3691,188.624 48.5,189.5C 47.353,185.354 47.1864,181.02 48,176.5C 49.1667,175.333 50.3333,174.167 51.5,173C 57.1569,172.501 62.8236,172.334 68.5,172.5 Z"/></g>
<g><path style="opacity:1" fill="#7d5130" d="M 35.5,169.5 C 35.4894,171.017 34.8228,172.184 33.5,173C 34.428,173.388 35.0946,174.055 35.5,175C 35.7914,178.417 35.2914,181.917 34,185.5C 32.778,181.686 30.6113,178.686 27.5,176.5C 29.5491,173.45 32.2157,171.117 35.5,169.5 Z"/></g>
<g><path style="opacity:1" fill="#bc773e" d="M 145.5,180.5 C 145.294,182.549 144.461,182.883 143,181.5C 141.333,182.5 139.667,183.5 138,184.5C 137.667,183.833 137.333,183.167 137,182.5C 135.235,183.239 133.235,183.239 131,182.5C 130.333,183.167 129.667,183.833 129,184.5C 127.434,185.061 126.101,184.394 125,182.5C 124.333,183.167 123.667,183.833 123,184.5C 120.912,183.692 118.912,182.692 117,181.5C 116.692,182.308 116.192,182.975 115.5,183.5C 113.528,182.695 112.028,181.361 111,179.5C 110.309,181.891 109.309,181.891 108,179.5C 107.617,180.056 107.117,180.389 106.5,180.5C 105.026,179.564 104.026,178.23 103.5,176.5C 106.698,176.48 109.531,176.147 112,175.5C 113.204,176.471 113.704,177.471 113.5,178.5C 115.07,178.306 116.57,178.306 118,178.5C 118.347,176.82 119.347,175.82 121,175.5C 122.722,175.611 122.888,176.111 121.5,177C 122.191,178.067 122.691,179.234 123,180.5C 123.17,178.285 123.837,176.285 125,174.5C 126.682,175.865 126.849,177.365 125.5,179C 127.903,179.63 129.737,178.797 131,176.5C 133.213,177.802 135.546,178.802 138,179.5C 138.5,179 139,178.5 139.5,178C 141.521,177.86 143.355,177.693 145,177.5C 145.483,178.448 145.649,179.448 145.5,180.5 Z"/></g>
<g><path style="opacity:1" fill="#5b381e" d="M 63.5,185.5 C 62.7101,186.794 61.7101,187.961 60.5,189C 66.8658,194.551 71.5325,193.718 74.5,186.5C 76.6471,188.737 78.9804,190.737 81.5,192.5C 78.4844,193.562 75.4844,194.729 72.5,196C 69.2397,196.784 66.0731,196.617 63,195.5C 62.5357,196.094 62.369,196.761 62.5,197.5C 58.1392,193.795 54.4726,189.461 51.5,184.5C 53.4271,176.588 57.2605,174.921 63,179.5C 63.0395,181.724 63.2062,183.724 63.5,185.5 Z"/></g>
<g><path style="opacity:1" fill="#9d6135" d="M 175.5,159.5 C 176.387,166.283 175.387,172.95 172.5,179.5C 167.612,181.747 162.612,183.914 157.5,186C 149.555,186.733 141.722,187.9 134,189.5C 129.685,189.489 125.352,189.156 121,188.5C 117.708,189.131 114.542,190.131 111.5,191.5C 111.66,189.801 111.494,188.134 111,186.5C 108.873,184.886 107.373,182.886 106.5,180.5C 107.117,180.389 107.617,180.056 108,179.5C 109.309,181.891 110.309,181.891 111,179.5C 112.028,181.361 113.528,182.695 115.5,183.5C 116.192,182.975 116.692,182.308 117,181.5C 118.912,182.692 120.912,183.692 123,184.5C 123.667,183.833 124.333,183.167 125,182.5C 126.101,184.394 127.434,185.061 129,184.5C 129.667,183.833 130.333,183.167 131,182.5C 133.235,183.239 135.235,183.239 137,182.5C 137.333,183.167 137.667,183.833 138,184.5C 139.667,183.5 141.333,182.5 143,181.5C 144.461,182.883 145.294,182.549 145.5,180.5C 145.833,180.5 146.167,180.5 146.5,180.5C 148.567,180.466 150.734,180.466 153,180.5C 153.333,179.833 153.667,179.167 154,178.5C 155.398,179.051 156.732,179.384 158,179.5C 158.5,178.333 159.333,177.5 160.5,177C 163.047,176.933 165.214,176.099 167,174.5C 167.333,174.833 167.667,175.167 168,175.5C 172.709,173.753 174.876,170.42 174.5,165.5C 175.341,163.621 175.675,161.621 175.5,159.5 Z"/></g>
<g><path style="opacity:1" fill="#784826" d="M 172.5,179.5 C 172.443,180.609 172.11,181.609 171.5,182.5C 170.883,182.389 170.383,182.056 170,181.5C 164.778,184.645 159.445,187.645 154,190.5C 153.667,190.167 153.333,189.833 153,189.5C 151.559,190.87 149.892,191.87 148,192.5C 144.766,192.284 141.599,192.284 138.5,192.5C 137.702,192.957 137.369,193.624 137.5,194.5C 136.833,194.5 136.167,194.5 135.5,194.5C 135.5,193.833 135.167,193.5 134.5,193.5C 131.094,189.519 127.761,189.519 124.5,193.5C 124.167,194.167 123.833,194.833 123.5,195.5C 120.515,193.101 117.348,193.101 114,195.5C 112.97,195.836 112.47,196.503 112.5,197.5C 112.167,197.5 111.833,197.5 111.5,197.5C 111.5,196.833 111.5,196.167 111.5,195.5C 111.5,194.167 111.5,192.833 111.5,191.5C 114.542,190.131 117.708,189.131 121,188.5C 125.352,189.156 129.685,189.489 134,189.5C 141.722,187.9 149.555,186.733 157.5,186C 162.612,183.914 167.612,181.747 172.5,179.5 Z"/></g>
<g><path style="opacity:1" fill="#53331c" d="M 171.5,182.5 C 169.303,186.238 166.636,189.571 163.5,192.5C 161.929,191.803 160.429,191.47 159,191.5C 152.676,194.184 146.176,196.184 139.5,197.5C 139.5,197.167 139.5,196.833 139.5,196.5C 139.158,195.662 138.492,195.328 137.5,195.5C 137.5,195.167 137.5,194.833 137.5,194.5C 137.369,193.624 137.702,192.957 138.5,192.5C 141.599,192.284 144.766,192.284 148,192.5C 149.892,191.87 151.559,190.87 153,189.5C 153.333,189.833 153.667,190.167 154,190.5C 159.445,187.645 164.778,184.645 170,181.5C 170.383,182.056 170.883,182.389 171.5,182.5 Z"/></g>
<g><path style="opacity:0.027" fill="#000000" d="M 134.5,193.5 C 133.443,194.206 133.776,194.539 135.5,194.5C 133.881,195.072 132.215,195.405 130.5,195.5C 128.55,194.628 126.55,193.961 124.5,193.5C 127.761,189.519 131.094,189.519 134.5,193.5 Z"/></g>
<g><path style="opacity:0.992" fill="#8a6549" d="M 199.5,159.5 C 199.833,159.5 200.167,159.5 200.5,159.5C 199.119,163.264 197.453,166.931 195.5,170.5C 195.97,171.463 196.637,171.463 197.5,170.5C 197.025,172.784 196.025,174.784 194.5,176.5C 187.407,186.59 178.407,194.59 167.5,200.5C 167.167,199.833 166.833,199.167 166.5,198.5C 164.833,199.333 163.167,200.167 161.5,201C 162.5,201.333 163.5,201.667 164.5,202C 152.14,208.84 139.14,211.34 125.5,209.5C 131.565,209.739 137.565,209.239 143.5,208C 141.292,207.809 139.292,207.309 137.5,206.5C 137.833,206.5 138.167,206.5 138.5,206.5C 143.519,206.038 148.186,204.704 152.5,202.5C 154.099,202.768 155.432,202.434 156.5,201.5C 176.75,193.584 191.083,179.584 199.5,159.5 Z"/></g>
<g><path style="opacity:1" fill="#392313" d="M 163.5,192.5 C 161.038,195.464 158.371,198.297 155.5,201C 155.728,201.399 156.062,201.565 156.5,201.5C 155.432,202.434 154.099,202.768 152.5,202.5C 153.96,200.537 155.627,198.704 157.5,197C 157.167,196.833 156.833,196.667 156.5,196.5C 154.334,197.971 151.834,198.971 149,199.5C 148.667,199.167 148.333,198.833 148,198.5C 144.915,199.432 141.748,200.099 138.5,200.5C 138.5,202.5 138.5,204.5 138.5,206.5C 138.167,206.5 137.833,206.5 137.5,206.5C 137.068,203.123 137.735,200.123 139.5,197.5C 146.176,196.184 152.676,194.184 159,191.5C 160.429,191.47 161.929,191.803 163.5,192.5 Z"/></g>
<g><path style="opacity:1" fill="#372214" d="M 123.5,195.5 C 123.5,196.167 123.167,196.5 122.5,196.5C 120.24,199.521 119.907,202.854 121.5,206.5C 123.735,206.205 125.735,206.539 127.5,207.5C 121.762,207.377 116.096,206.71 110.5,205.5C 111.75,202.994 112.416,200.327 112.5,197.5C 112.47,196.503 112.97,195.836 114,195.5C 117.348,193.101 120.515,193.101 123.5,195.5 Z"/></g>
<g><path style="opacity:1" fill="#764927" d="M 192.5,204.5 C 194.468,206.939 195.801,209.773 196.5,213C 193.712,215.566 190.712,217.899 187.5,220C 184.888,220.741 183.222,219.741 182.5,217C 179.926,214.757 177.092,212.924 174,211.5C 170.204,213.316 166.37,214.983 162.5,216.5C 160.882,213.12 161.716,210.453 165,208.5C 166.952,209.7 168.452,209.2 169.5,207C 169.167,206.667 168.833,206.333 168.5,206C 171.321,204.178 173.821,202.011 176,199.5C 178.23,200.489 180.064,199.822 181.5,197.5C 184.229,200.362 184.562,203.195 182.5,206C 182.667,206.833 182.833,207.667 183,208.5C 184.067,207.809 185.234,207.309 186.5,207C 182.551,206.193 182.551,205.693 186.5,205.5C 186.866,200.532 187.366,200.866 188,206.5C 189.33,205.418 190.83,204.751 192.5,204.5 Z"/></g>
<g><path style="opacity:1" fill="#6b4325" d="M 81.5,192.5 C 90.2829,198.723 99.9496,203.057 110.5,205.5C 116.096,206.71 121.762,207.377 127.5,207.5C 130.833,207.167 134.167,206.833 137.5,206.5C 139.292,207.309 141.292,207.809 143.5,208C 137.565,209.239 131.565,209.739 125.5,209.5C 109.212,209.348 94.3786,204.681 81,195.5C 78.3318,196.67 75.9984,198.337 74,200.5C 73.6667,199.833 73.3333,199.167 73,198.5C 69.8646,199.968 66.6979,200.302 63.5,199.5C 63.1667,198.833 62.8333,198.167 62.5,197.5C 62.369,196.761 62.5357,196.094 63,195.5C 66.0731,196.617 69.2397,196.784 72.5,196C 75.4844,194.729 78.4844,193.562 81.5,192.5 Z"/></g>
<g><path style="opacity:1" fill="#d29253" d="M 41.5,185.5 C 41.3347,189.182 41.5014,192.848 42,196.5C 43.2988,196.034 44.7988,196.034 46.5,196.5C 46.281,197.675 46.6143,198.675 47.5,199.5C 48.4742,197.257 48.8076,194.924 48.5,192.5C 49.3091,194.292 49.8091,196.292 50,198.5C 54.5125,203.373 54.0125,207.873 48.5,212C 47.365,212.749 46.365,212.583 45.5,211.5C 44.9169,209.998 44.0836,208.665 43,207.5C 42.9738,203.861 42.1405,200.528 40.5,197.5C 40.1832,193.298 40.5166,189.298 41.5,185.5 Z"/></g>
<g><path style="opacity:1" fill="#58371f" d="M 63.5,200.5 C 61.9856,204.366 60.319,208.199 58.5,212C 60.8051,215.994 64.1385,218.827 68.5,220.5C 69.5,220 70.5,219.5 71.5,219C 74.0482,216.115 76.8815,213.615 80,211.5C 86.0792,213.953 91.9126,216.619 97.5,219.5C 96.561,219.626 95.561,219.96 94.5,220.5C 89.6982,219.177 85.1982,217.177 81,214.5C 77.0113,217.82 73.0113,221.153 69,224.5C 64.3815,221.55 60.0482,218.216 56,214.5C 56.3208,209.837 57.8208,205.504 60.5,201.5C 61.2216,201.082 61.7216,200.416 62,199.5C 62.3826,200.056 62.8826,200.389 63.5,200.5 Z"/></g>
<g><path style="opacity:1" fill="#824e29" d="M 219.5,172.5 C 221.592,173.894 223.258,175.728 224.5,178C 223.311,182.583 220.811,186.083 217,188.5C 212.606,186.805 208.106,185.972 203.5,186C 199.55,190.072 195.717,194.238 192,198.5C 191.82,200.488 191.986,202.488 192.5,204.5C 190.83,204.751 189.33,205.418 188,206.5C 187.366,200.866 186.866,200.532 186.5,205.5C 182.551,205.693 182.551,206.193 186.5,207C 185.234,207.309 184.067,207.809 183,208.5C 182.833,207.667 182.667,206.833 182.5,206C 184.562,203.195 184.229,200.362 181.5,197.5C 180.064,199.822 178.23,200.489 176,199.5C 173.821,202.011 171.321,204.178 168.5,206C 168.833,206.333 169.167,206.667 169.5,207C 168.452,209.2 166.952,209.7 165,208.5C 161.716,210.453 160.882,213.12 162.5,216.5C 160.552,217.131 158.719,218.131 157,219.5C 156.501,224.489 156.334,229.489 156.5,234.5C 151.941,234.611 147.608,235.611 143.5,237.5C 144.243,238.182 144.909,238.849 145.5,239.5C 142.454,239.817 140.787,238.484 140.5,235.5C 140.435,235.062 140.601,234.728 141,234.5C 141.556,236.595 142.056,236.762 142.5,235C 141.411,225.939 136.411,222.105 127.5,223.5C 124.167,223.667 120.833,223.833 117.5,224C 116.944,224.383 116.611,224.883 116.5,225.5C 115.399,224.2 114.066,223.7 112.5,224C 112.898,226.857 111.565,229.024 108.5,230.5C 107.833,228.167 107.167,225.833 106.5,223.5C 104.899,222.835 103.399,222.501 102,222.5C 101.804,224.286 100.971,225.619 99.5,226.5C 98.8319,224.031 98.1653,221.698 97.5,219.5C 91.9126,216.619 86.0792,213.953 80,211.5C 76.8815,213.615 74.0482,216.115 71.5,219C 70.5,219.5 69.5,220 68.5,220.5C 64.1385,218.827 60.8051,215.994 58.5,212C 60.319,208.199 61.9856,204.366 63.5,200.5C 63.5,200.167 63.5,199.833 63.5,199.5C 66.6979,200.302 69.8646,199.968 73,198.5C 73.3333,199.167 73.6667,199.833 74,200.5C 75.9984,198.337 78.3318,196.67 81,195.5C 94.3786,204.681 109.212,209.348 125.5,209.5C 139.14,211.34 152.14,208.84 164.5,202C 163.5,201.667 162.5,201.333 161.5,201C 163.167,200.167 164.833,199.333 166.5,198.5C 166.833,199.167 167.167,199.833 167.5,200.5C 178.407,194.59 187.407,186.59 194.5,176.5C 199.328,176.615 200.661,174.448 198.5,170C 199.211,168.745 200.044,167.579 201,166.5C 201.333,167.167 201.667,167.833 202,168.5C 203.356,167.62 204.856,167.286 206.5,167.5C 206.67,168.822 206.337,169.989 205.5,171C 207.01,171.85 208.51,172.683 210,173.5C 210.5,173.167 211,172.833 211.5,172.5C 210.572,171.232 210.405,169.899 211,168.5C 212.788,170.004 213.288,171.671 212.5,173.5C 214.765,174.7 216.598,176.367 218,178.5C 218.5,178 219,177.5 219.5,177C 218.587,175.586 218.587,174.086 219.5,172.5 Z"/></g>
<g><path style="opacity:1" fill="#22130a" d="M 152.5,202.5 C 148.186,204.704 143.519,206.038 138.5,206.5C 138.5,204.5 138.5,202.5 138.5,200.5C 141.748,200.099 144.915,199.432 148,198.5C 148.333,198.833 148.667,199.167 149,199.5C 151.834,198.971 154.334,197.971 156.5,196.5C 156.833,196.667 157.167,196.833 157.5,197C 155.627,198.704 153.96,200.537 152.5,202.5 Z"/></g>
<g><path style="opacity:0.143" fill="#020100" d="M 122.5,196.5 C 127.715,197.632 132.715,197.632 137.5,196.5C 138.167,196.5 138.833,196.5 139.5,196.5C 139.5,196.833 139.5,197.167 139.5,197.5C 137.735,200.123 137.068,203.123 137.5,206.5C 134.167,206.833 130.833,207.167 127.5,207.5C 125.735,206.539 123.735,206.205 121.5,206.5C 119.907,202.854 120.24,199.521 122.5,196.5 Z"/></g>
<g><path style="opacity:1" fill="#4b2e1a" d="M 140.5,235.5 C 138.67,233.174 137.337,230.507 136.5,227.5C 130.5,226.167 124.5,226.167 118.5,227.5C 117.107,231.286 115.441,234.952 113.5,238.5C 107.108,239.554 101.108,238.554 95.5,235.5C 97.126,235.062 98.7927,234.728 100.5,234.5C 104.024,236.088 107.691,236.588 111.5,236C 112.694,232.238 114.361,228.738 116.5,225.5C 116.611,224.883 116.944,224.383 117.5,224C 120.833,223.833 124.167,223.667 127.5,223.5C 136.411,222.105 141.411,225.939 142.5,235C 142.056,236.762 141.556,236.595 141,234.5C 140.601,234.728 140.435,235.062 140.5,235.5 Z"/></g>
<g><path style="opacity:1" fill="#4d301a" d="M 238.5,143.5 C 238.868,146.056 238.034,148.056 236,149.5C 231.286,150.113 226.619,150.779 222,151.5C 221.273,156.741 219.773,161.741 217.5,166.5C 220.86,170.527 224.527,174.194 228.5,177.5C 225.822,182.867 222.655,187.867 219,192.5C 214.399,190.141 209.565,188.974 204.5,189C 201.684,192.783 198.517,196.283 195,199.5C 195.926,204.432 197.76,209.098 200.5,213.5C 196.154,217.762 191.321,221.429 186,224.5C 182.019,221.353 178.186,218.02 174.5,214.5C 169.806,217.35 164.806,219.35 159.5,220.5C 159.5,225.833 159.5,231.167 159.5,236.5C 154.894,237.755 150.228,238.755 145.5,239.5C 144.909,238.849 144.243,238.182 143.5,237.5C 147.608,235.611 151.941,234.611 156.5,234.5C 156.334,229.489 156.501,224.489 157,219.5C 158.719,218.131 160.552,217.131 162.5,216.5C 166.37,214.983 170.204,213.316 174,211.5C 177.092,212.924 179.926,214.757 182.5,217C 183.222,219.741 184.888,220.741 187.5,220C 190.712,217.899 193.712,215.566 196.5,213C 195.801,209.773 194.468,206.939 192.5,204.5C 191.986,202.488 191.82,200.488 192,198.5C 195.717,194.238 199.55,190.072 203.5,186C 208.106,185.972 212.606,186.805 217,188.5C 220.811,186.083 223.311,182.583 224.5,178C 223.258,175.728 221.592,173.894 219.5,172.5C 217.101,171.102 215.434,169.102 214.5,166.5C 216.903,161.025 218.736,155.358 220,149.5C 224.967,147.709 230.134,147.042 235.5,147.5C 235.5,146.167 235.5,144.833 235.5,143.5C 235.5,142.5 235.5,141.5 235.5,140.5C 236.314,138.369 236.814,136.036 237,133.5C 237.179,137.025 237.679,140.359 238.5,143.5 Z"/></g>
<g><path style="opacity:1" fill="#724626" d="M 94.5,220.5 C 95.561,219.96 96.561,219.626 97.5,219.5C 98.1653,221.698 98.8319,224.031 99.5,226.5C 100.971,225.619 101.804,224.286 102,222.5C 103.399,222.501 104.899,222.835 106.5,223.5C 107.167,225.833 107.833,228.167 108.5,230.5C 111.565,229.024 112.898,226.857 112.5,224C 114.066,223.7 115.399,224.2 116.5,225.5C 114.361,228.738 112.694,232.238 111.5,236C 107.691,236.588 104.024,236.088 100.5,234.5C 98.7927,234.728 97.126,235.062 95.5,235.5C 95.8205,230.305 95.4872,225.305 94.5,220.5 Z"/></g>
</svg>
